<svg xmlns="http://www.w3.org/2000/svg" viewBox="0 0 317.41 453.9"><title>logo-indiv</title><path d="M282.38,452.39c.39,2.35,1.55,1.19,1.88,1.49C283.1,450.07,282.05,452.56,282.38,452.39Z"/><polygon points="270.94 414.72 271.64 415.29 269.11 409.9 270.94 414.72"/><path d="M263.49,378.74c-1.6,3.86,3.08,13,3.59,19.54l-.3,1.15,2.45,2.51C267.33,394.22,264,384.36,263.49,378.74Z"/><path d="M264.83,358.56c-.68,1.36-1.55-4,.55,4.53,0-.45.05-.59.08-.85C265.3,361.46,265.1,360.39,264.83,358.56Z"/><path d="M261.68,344.82l1.74,4.85c.33-1.15-.37-5.61.32-4C262.34,340.6,262,341.75,261.68,344.82Z"/><path d="M259.1,340.4l.82,2.53C260.06,342.43,260,341.73,259.1,340.4Z"/><path d="M261.67,348.28l-1.74-5.35c-.24.78-1,1,.73,2.47C259.88,345.07,260.75,346,261.67,348.28Z"/><path d="M261.89,351.45c0,2.89.38,6.59-1.36,1.73C262.63,362.67,264,361,261.89,351.45Z"/><path d="M260.72,377.39l.1,3.88,1.45,3.09C261.55,382.81,261.4,377,260.72,377.39Z"/><path d="M257.29,313.53c-.54-.23-1.08,1.89-1.66,2.36l.54,1.8c.26.89.6,1.8.6,1.8C256.72,317.52,256.62,313.9,257.29,313.53Z"/><path d="M255.62,315.89,254,310.52C254.59,315.46,255.12,316.3,255.62,315.89Z"/><polygon points="256.36 339.96 259.83 348.73 256.01 338.23 256.36 339.96"/><polygon points="254.39 292.53 255.98 295.49 253.45 290.17 254.39 292.53"/><path d="M252.22,278.64c1.28,2.2,1.17-3.33,2.1-1a75.46,75.46,0,0,0-3-9.77A43.1,43.1,0,0,1,252.22,278.64Z"/><path d="M249.86,263c.36,1.54.91,3.13,1.49,4.86A27.11,27.11,0,0,0,249.86,263Z"/><path d="M252.92,301.07c.24-.47.91-1.4.8-4.53l-1.09,2.36C252.72,299.56,252.82,300.31,252.92,301.07Z"/><path d="M252.6,299l0-.09c-.29-2.36-.49-4-.58-4.69C252.12,294.81,252.28,296.24,252.6,299Z"/><path d="M253,301.62l-.07-.55Z"/><path d="M254.92,325.25c-1.38-3.11-3.48-9.75-3.44-3C252.86,324.43,252.84,320.57,254.92,325.25Z"/><path d="M251.62,304.57l.51,5.93c.35-.17.74-1.32,1.35.24Z"/><polygon points="250.77 301.77 251.62 304.57 251.44 302.38 250.77 301.77"/><path d="M249.52,273.29c-1-2.45-1.18-5.29-1.6-8.43a64.88,64.88,0,0,0,.65,10.24C249.08,275.51,250.08,276.87,249.52,273.29Z"/><path d="M250.89,285.8l-.16-.56Z"/><polygon points="245.51 233.66 245.29 234.18 245.54 234.28 245.51 233.66"/><path d="M248.39,275.69a12.73,12.73,0,0,0,1.28,5.41c-.4-1.87-.78-3.86-1.1-6C248.35,274.91,248.21,274.88,248.39,275.69Z"/><path d="M248.47,254.4c-.18,1.36-.31,2.88-.4,4.49C248.4,257.56,248.87,254.85,248.47,254.4Z"/><path d="M251,284.34l.12.37C251.3,283.85,251.17,284,251,284.34Z"/><path d="M251,284.34a24,24,0,0,0-1.33-3.25c.33,1.52.68,2.94,1.06,4.14Z"/><path d="M235.87,224.71c1.33.39,3,7.07,2,13,1.34,5.67,5.39,1.61,7.47-3.52-.58-.15-1.11-.11-2.25-5.94-.58,2.1-.82,13.17-2.33,8.28-1.17-7.77.05-6.43.5-10.26-1.44,3.32-3-9.8-5.23-8l1.23,6.82C236.84,225.25,236.09,222.79,235.87,224.71Z"/><path d="M245.88,245.38l.37,2.39a35.81,35.81,0,0,1,1.17-8.46c-.89-4-1.43-4.78-1.89-5l.61,11.9Z"/><path d="M247.18,258.61c-1.58-1.76-2.67-7.52-3.91-3.84.7,7.1,1.61,4.87,2.58,9.07-1.33-11.42,1.07,3.21,1.17-5.12.43,2.23.68,4.25.9,6.14,0-2.08,0-4.08.14-6l-.06.28v.05h0c-.14.51-.23.67-.17.11l-.05-.23-.58-.47c0-3.33.32-.55.58.47l.22.12,0,0-1.75-11.39A105.17,105.17,0,0,0,247.18,258.61Z"/><path d="M247.46,316.7l.28-.41C247.46,315.57,247.31,315.31,247.46,316.7Z"/><path d="M247.65,311.86a9.15,9.15,0,0,1,1.21,4.13c-.09,2.41-.68.1-1.12.3.6,1.56,1.8,5.52,1.77.3l-.3-.77c-.17-4.67.76-10.83,1.06-10A15.27,15.27,0,0,0,247.65,311.86Z"/><path d="M246.65,284.91l-2-9.41-.54,5,.7-.33C245.25,285.56,246,284.3,246.65,284.91Z"/><polygon points="246.15 232.52 247.73 233.69 245.26 228.31 246.15 232.52"/><polygon points="245.17 220.15 246.51 220.53 245.57 217.3 245.17 220.15"/><path d="M19.19,297.64l1.87,1.55A18.13,18.13,0,0,0,19.19,297.64Z"/><path d="M14.8,285l-.58-.45C14.47,285.23,14.68,285.51,14.8,285Z"/><path d="M297.44,73c-2.34,3.27-5.29,6.43-3.79,6.52l1.69-.6A21.24,21.24,0,0,1,297.44,73Z"/><path d="M140.75,192.16H142l2.18-2.21Z"/><path d="M140,198.71l-5.42.93A44.57,44.57,0,0,0,140,198.71Z"/><path d="M110.22,293l1.76-2.88C108,292.73,110.14,292.21,110.22,293Z"/><path d="M248.07,93.82c1-3.39,1.69-6.06,2.18-8.42C248.68,89.35,247,92.55,248.07,93.82Z"/><path d="M2,299c1.32,1.93,2.11,2.59,2.33,2.36C2.9,299.56,2.07,298.45,2,299Z"/><path d="M252,75.58c-.26.56-.49,1.13-.7,1.72a62.48,62.48,0,0,1-1.07,8.11A22.24,22.24,0,0,0,252,75.58Z"/><path d="M177,115.42l-.92.33C176.14,116,176.52,115.76,177,115.42Z"/><path d="M61.12,143.51c1.1-.36,2.93-.81,4.66-1.26A28.37,28.37,0,0,0,61.12,143.51Z"/><path d="M238.91,183.14c-.17-.56-.39-1-.72-1A1.77,1.77,0,0,1,238.91,183.14Z"/><path d="M250,48.24l.08-.22C249.56,48.68,249.66,48.57,250,48.24Z"/><path d="M243.79,174.23c.19-1,.34-2.11.45-3.36C244.13,171.42,244,172.45,243.79,174.23Z"/><path d="M244.47,173.71c-.06.9-.1,1.62-.15,2.29C244.59,176.32,244.69,176,244.47,173.71Z"/><path d="M244.42,166.63c0,1.51-.07,2.91-.18,4.25.1-.51.18-.72.23-.58C244.46,169.52,244.44,168.43,244.42,166.63Z"/><path d="M162.79,130.15l.13-.58C162.31,126.89,162.41,128.08,162.79,130.15Z"/><polygon points="271.46 136.3 271.66 136.04 271.31 136.27 271.46 136.3"/><path d="M264.48,143.38a18.65,18.65,0,0,1,6.83-7.1l-5.11-1.06s-.33,2.1-.79,4.1Z"/><path d="M56.19,312.85s-1.5-.24-2.95-.62-2.86-.75-2.86-.75c6.95-1.72,11.83-1.78,6.45-3.14-.26,2.29-5.93,2.65-11.22,1.87s-10-2.66-11.34-.77c0,0-.76-.57-1.44-1.23L31.44,307c.9.52,1.17.35,2,.86-2.61-2.47-3.9-2.6-5.85-2.61-1.79-.17-4.21-.3-7.37-4-2.06-2.71-2.85-5-1.09-3.53L16.53,295a19.32,19.32,0,0,1-2-2.34c-.54-1.56.38-1.43.84,0l-.52-1.17a10.54,10.54,0,0,1-.76-2.69,13.52,13.52,0,0,1,0-4.39l.12.1a12.06,12.06,0,0,1-.47-3.26,23.2,23.2,0,0,1,.35-3.65c1.83-2.35-.19,1.51.64,1.07,0,0,.37-1.51.89-3.05s1.18-3.09,1.18-3.09c2.48-1.62.17,3.51-1.37,7.16,3.12-1.62,3.44-2.67,4.06-4.77s1.72-5.14,7.12-9.35l-1.81,2.55-1.67,2.56c4.34-1.5,6.69-5.7,13-9.51-1.87.4-12.73,7.51-8.61,1.43a27.45,27.45,0,0,0,6-6.57c1.12,1.14,3.71-1.84,7.48-5.13l1.1,1.83c3.7-3.9,2.74-4.45,4.65-7.18,4.91-3.58,6.95-3,8.9-2.73,8.05-5.45-7,1.84,2.11-5.27a74.31,74.31,0,0,0,9.3-6.32c2.83-2.18,6.11-5.26,9.36-7.67,5-1.78-.27,1.55,1.67,1.22l3.66-3.6c1.11-.48,1,.16.9.48,3.5-2.34-.59-2.08,5.35-5.25.76-2.92,14.09-2.07,21-7.43,2.15-.17-.49,1.56.39,2.11,10.22-5.64,8.85-4.6,17-10l8.1-1.41c-6.15.51.39-3.83,6.19-7.48-2.25,0-4.18-.05-5.44,0l9.69-4.59c1.33-.1.56.94-.8,2.35l1.67-1.12c3.86-.52,2.39,1.28.21,3.29l-4.06,0c-2.06,2.08-3.91,4.24-3,5.22a16.45,16.45,0,0,1,3.1-1.69c-.53.56-.84,1-.47,1.09s1.31-.72,2.78-1.8l3.06,1.42.24-1.07,13.65-3.19c8.64-5.52,15.72-11.62,30.32-17.84-3.13,2.94.15,2.93.64,4.93-4.8-.58-11.29,5-19.2,7.26,4.12-1.2,3.55,0,2.63.71L189,180.48c.25,1.68,3.36.13,7.22-.5-3.86-2.13,9.57-5.77,14.83-9,.76.89-.19,2.5-7.17,4.84,8.57-.63,8.25-7.09,16.77-8.78-1.79,1-2.79,1.23-3.21,2,4.14-2.79,12.71-7.23,11.28-5.18l-1.53.9a166.45,166.45,0,0,0,19.49-11.94c6.41-4.58,11.23-9.19,11.11-10.82a10.55,10.55,0,0,1,.48,4.54s.77-1.23,1.83-3.2l3.82-7.05c2.6-5.26,4.9-10.38,4.9-10.38.15,3,9.58,2.49,2.85,10.09a45.76,45.76,0,0,0,4.13-3,47.39,47.39,0,0,0,5.09-5.64c-1.69,1.16-6,.93-4.2-1.08,7.19-3.21,4.63-2.51,12.5-7.86-2.46,1.83-2.86-2.9-.09-6.55,0,.94,3.18,2,2.44,3.63l2.06-5.85,1.34-4,.46-1.87c-.95,2.84,2.33,2.21,4.63.44-.63.34.73-1.86,2.41-4.53a40.09,40.09,0,0,0,3.78-7.61l-2.92,4.26c3-6.07,3.54-9.51,3.06-13.13a39.59,39.59,0,0,1-.2-5.56,25.17,25.17,0,0,1,.43-3.34,41.12,41.12,0,0,1,.55-4.21c.5,1.61,3.95,4.91,5.57-1.82a102.46,102.46,0,0,0-4.49-9.86,66,66,0,0,1-3-7,49.35,49.35,0,0,1-2.6-7.58l.74-2.16-1.27-3.93L300.55,34a47.15,47.15,0,0,1,7.95,11.61c2.9,5.21,4.41,11.38,5.58,15.9,1-5.1,1.33-1.37,1.4-9.15,1.07-2.81,1.46,4.26,1.46,6.62,0,0,.33-4.62.48-9.24-.11-2.29-.22-4.57-.31-6.28a19.48,19.48,0,0,0-.27-2.87c-1.07.55-2.08-2.84-3.29-6.16s-2.67-6.58-3.53-6c0,0,.53,1.13,1.17,2.86a62.19,62.19,0,0,1,2.23,6.41,81.68,81.68,0,0,1,2.36,9.56c-2.24.83-6.6-10.47-10.64-21.82-.25-3.32,4.48.79,5.11.38-.62-.69-2-3.48-3.62-6.15-1.38-2.72-3.43-5.21-3.45-5.92l2.08,2.14a21.89,21.89,0,0,1,2,2.24,19.48,19.48,0,0,0-6.72-8.1,126.4,126.4,0,0,0-10.42-7.21c-1.8-.61-4.43-2.12-7.13-2.48-2.69-.71-4.88-.3-5.09.36a6.54,6.54,0,0,1,5.64,5.79c.33,2.51-.39,5-1.31,5.86a15.2,15.2,0,0,0-6.32.58A51,51,0,0,0,271,15a30.89,30.89,0,0,1-3.4,1.88c-2.29.88-2.05-1-1.52-3.18s1.31-4.48-.81-3.58c.25.59-1.2,3.09-1.8,4-2.41,2-.64-2.3-4.67,3.3.91,2.12-7.32,11.31-.25,3.67-2.87,5.73-3.91,5.57-7.13,12.29,2.28-1.46,1.84,7.95.64,13.81-.43-.52-1.56.52-2.1,1-2.21,5.83-3.45,10.46-5.05,14.9a150.5,150.5,0,0,0-3.67,14.66c-.72,1-2.34,6.41-2.88,3.87a23.83,23.83,0,0,1,0,6.93c-1.42,3.31-1.25,1.32-1-.91s.51-4.64-1.11-2.19c1.1.65.46,9.54.58,14.72,2.29-1.31,1.79-11.68,2-16.89,2.67.46,4.12,9.68,4,21.72-.24,9.57-2.2,3.95-2,5.63-1.19,8.93-.13,12.86.66,16.37s1.31,6.57.09,14c-2,5.84-3.54.12-4.86,1.38-.47-7.87,1.77-11.95,2-17.24l-1.26,6.47a33.73,33.73,0,0,1,.16-10.6c-2,4.87-2.24,30.5-3.5,44.47.58,2.48,1.16,6.77,1.89,4.74l-.21-4.42c1.46-4,1.92,8.31,2.62,2.73.89,5.92,2.65,12.5,2,20.81l-2,1.6c.59-.18,1.11-5.45.45-7.78,1,3.43-2.57,12.82.28,16.54l.58-2.93.65-2.93c1.11,5.91,3.67,13.12,3.31,20.48,1.86-3.43-.3-1.69,1.82-7-2.76,4.62-.6-18.75-3.39-11.4,2.61-5.42,1-9.3,3.17-16.3-.67.22-1.23,2.49-1-3.66a6.45,6.45,0,0,1-.59-1.35l.06-.42-.08.34c-.1-.26-.12-.28,0,.13a9.62,9.62,0,0,1-1,3.14c-1.63-3-1.42-12.85-2.22-16.17.34-3.66.75,1.54,1.48-.45l-1.15-5c1.45-.48,2.79-9.62,3.34-1l.34-7.7a56.85,56.85,0,0,0,1.16-14.58c.56-3.6-1-9.25-.09-6l-.07-6.05c0-3,.09-6,.09-6l.38-.07c1.2-11.77.27-24.69,5.36-37.47A66,66,0,0,1,254.17,63l1.57-.91c.74-5.05,5.53-13.84,5-16.23a13.88,13.88,0,0,0,3.73-4.94c1.15-2.29,2.6-4.75,3.81-7.53,2.73-5.21,6-10.1,8.58-12L276,20c.91-.55,1.74-1.3,2.57-1.86.82-.28,1.63-1.08,2.39-1.23a7.85,7.85,0,0,1,5-.53l.31-1.52c2.16.31,4.73,2.48,6.71,5.83s3.31,7.87,4.86,12.3c-.74-.44-1.4-2.68-1.64-4.39.53,5.67,2.23,11.28,3.68,17.22.31,1.5.62,3,.92,4.48a32.74,32.74,0,0,1,.32,4.4c0,2.89.08,5.75-.89,8.29a15.2,15.2,0,0,1-1.1,6.28l0-.66c-.05.27-.12.65-.2,1.06a25.23,25.23,0,0,1-1.5,3.37,9,9,0,0,0,1.42-2.8c-.11,2.05-1.13,5-1.63,8l-1.89.71-.17.68c-1.41,2.58,0,2.54,1.6,1.43-.13,1.59-.59,3-.67,4.13-3.4,1.14-2.49,7.91-6.87,9.37a10.11,10.11,0,0,1-1.07,3.25,32.53,32.53,0,0,1-2.56,4.88c-2,3.34-3.75,6.9-3.32,8.4-.35-.15-1.12.44,0-.86-2.64,2.46-5.21,4.92-6.81,7.84l-2.54-.36-3.73,7.42c-4.44,2.28-6.38,2.94-3.85-1.26-7,9.24-6.41,6.63-12.75,14.46l-.37-1.33c-2.84,2-6.4,6.77-8.82,7-4,1.19-12.14,6.2-22.15,11.77L217.38,158c-1.14.52-2.15,1.08-3.4,1.63-2.67,1.07-5.32,2.18-8.14,3.13a155.19,155.19,0,0,1-16.07,4.83c5,2.3-9.53,1.56-9.31,4.63-1.42-.47-4.29,0-1.42-1.85-9.56,4.29-15.3,3.81-21.31,8.55-1.43-.47,1.68-2,.5-2.16-.73.46-2.89,1.84-4.1,1.68s1.2-1.22,2.63-2.14c-10.06,3.66-10.16,6.66-10,9.41-5.53.62-8,1.68-11.15,4.6-2.07-.18-5.35,0,.83-2.48-3.57,1.09-22,6.48-21.63,8.63-1.28-.1-5,1.64-5.82,2.21-7.93,2.87-8.7,2.87-16.36,6.12l2.26-.52c-2.11,3.57-6.21,3-12.27,5.94l.08-.32c-7.47,2.25-8.92,3.33-10.34,4.21-1.32,1.05-3.19,1.94-9.87,5.29l1.56.85c.75,3.58-12.25,5.79-18.57,12.19l3.09-1.16c-3.16,3.7-13.55,4.45-17.65,7.4-1,.47,1-1.47,2-2.6-11.24,6.9,0,2.61-6.92,9.37-2.06.4-.22-3.74-5.19.69-1.52.81-4.37,4.87-7.49,9.63S6.93,266,3.71,270c1.85-1.5,3.54-2.85,1.82,1.67C4,275,1.22,279.49.31,285.18s.67,12,3.8,14.56c.33,1,.35,1.52.19,1.68A73.68,73.68,0,0,0,12.41,310c3.31,2.79,6.79,4.83,8.54,5.21.44,3.7,8.78,8.06,16.78,9.13,8,1.28,15,.46,14.95,3h2.66c1.58-.12,3.71-.15,5.79-.41,4.19-.39,8.26-1.21,8.26-1.21l-.34.58c10.54-1.69,13.71-4.25,16.77-6.46,2.37-.45.88.57.78.88,7.35-2,11.25-3.6,14.66-5.42s6.3-4,11.12-8.25l2,.76c1.23-1.31,6.25-3.49,12.21-7.25a57.09,57.09,0,0,0,16.73-16.1c0,.23.08.67-.55,1.73,4.82-7.13,11.32-15,15.94-22.57S166,249,164.28,245.1c0,0,.65-2.69,1.1-5.41s.92-5.42.92-5.42c-4.64,13.24-1.81-2.72-4.49,2.46,1.33-5.2,5.48-13.09,4.09-6.51l-.58.94c1.17,1.62,2.64-2.51,3.81-7s2-9.35,3-9c.57-3.46,1-6.94,1.31-10.53.29-3.86.14-6.94.25-10.43q.12-10,.22-19.95c.14-13.14.37-26,.28-38.66l-2.38,2.93.08-8.8c.55-2.32,1.87-3.11,1.8,3.16,1.35-3.31-1.2-10.52-1.73-10.7.92-12.29,2.84,4.79,2.88,1l-.21-5.11-.27,1.15c-1-4.15-2-4.51-1.8-12,.55-4.75,1.53-2.42,1.64-4.28.17,0,.26-.61.11-2.87,0,0,0-2.78.26-5.48s.37-5.44.37-5.44l-2.12,4.28c-.7-4.89.6-10.31-1.8-5.36,1.81-3.6,2.54-14,4.67-22.55a41.27,41.27,0,0,1,5.38-10.88A24.83,24.83,0,0,1,186,49.33a28,28,0,0,1,6.65-7A37.83,37.83,0,0,1,197,39.53c.77-.46,1.6-.82,2.43-1.22.41-.21.84-.38,1.26-.55l1-.37c-.66,0-1.52-.26-1.5-.87s.95-1.89,4-2.1c-.9,2.21,1.38,2.77,3.71,4.45,3,1.71,4.92,5.07,3.81,7.16.48-1.84,1.89.88,1.87,4.66.09,1.83-.31,3.77-.26,4.84s.47,1.3,1.63-.31c-.77,2.61-1.32,2.54-1.75,2.31s-.92-.62-2.14,1.09c-1.48,6.14-5.61,13-10.77,18.73s-11.44,11.21-18,16.55c.12.62,3-.36.53,2.49l-4.52,1.46c-2.24.72-4.56,1.26-4.56,1.26-2.65,2-.85,4.59-7.28,5.91,1,0,2.51,0,.6,1.28-7.8,3.51-15.71,6.92-23.83,10.29L131,121.7q-3.13,1.3-6.38,2.82c-1.08.5-2.26,1.17-3.38,1.76l-2.83,1.29c-1.87.82-3.67,1.7-5.61,2.5l-6.25,2.09a132.24,132.24,0,0,1-12.75,3.67,181.53,181.53,0,0,1-26.3,4.67c4.91-.1,1.87.82-1.7,1.73,2.38-.31.3,1.4.95,2.05l-14.94,1.4c-2.13,2.75-15.46,3.79-16.51,6.14l4.5-1.41c-5.55,3.81,9.78,3.35,9.62,6.62,6.19-4.33,19.07-.26,29.31-7.1,2.63,0-1.86,1.54-.35,1.9,2.5-2.08,5.85-3.15,12.37-4.36l-.63.53c8.88-2.66,15.31-4.25,22.11-6.18,1.71-.47,3.4-.86,5.23-1.42l5.87-2.17,3.18-1.22L129,136c1.86-.72,4-1.5,6.36-2.34l-2-.88a32.78,32.78,0,0,1,7.24-1.74c3.78-4.08-11.5,4.48-8.21.35,3.22.35,10.53-2.43,17.67-5.38s14-6.09,16.61-5.46c6.3-3.25-2.66-.66,3.6-3.88l2.11,0,.94-2c4.12-2.06,6.74-2.33,7.33-1.73-1,.55-2.62,1.94-3.66,2.58,2.94-1,6.55-3.46,9.61-5.77s5.57-4.55,6.47-5.14c0,0-1.44,1-3,1.87l-3,1.78c15.67-11.73,33.57-29.85,37.12-50.76l-1.09,1.35c1.41-7.7,1-11.28.52-15-.2-.93-.34-1.9-.66-2.94s-.88-2.14-1.52-3.39A20.57,20.57,0,0,0,213.38,30l.7.19c-.94-.29-1.89-.71-2.94-1a33,33,0,0,0-3.73-1,12.48,12.48,0,0,0-7.91.6c2.36-1.19,0-1-2.42-.44-2,.38-3.66.73-1.29-.92a45.71,45.71,0,0,0-7.14,4.8,11.67,11.67,0,0,0-2.33,2.3c-.78,1.15-1.1,1.94-4.16,6.38l-2.61.77c-1.68,3.41-1.76,3.77-6,10.47,2.75-6.2-4.44,3.42-1.44-3.76a30.84,30.84,0,0,0-8.32,19.16c-.11,5.14-.27,9-2.6,12.66,1.57,3.79,2,.42,2.71-3.56s1-8.34,1.07-6.18c1.58-3.29,1.6,6.53.94,11.45-.22,5-5,8.45-5.08,21.3,0-1.28-.22-1.37-.19-2.64-.93,4.79,1,9.41-.45,15.27,2.05,3.29-.08,7.61,2.53,8.55l-.6-11.7c.59,6.66,3.77,12.84,2.31,23.74-.53-.83-1.24-4.07-1.64-6.3-.75,3.19.52,6.14-.21,9.45-2.68-.91-.65-14.2-2.7-21.3-1.09,3.43,2,13.44-.89,9.88,3.6,5.11-.37,12.59,2.53,21.17L160,148.8a34.31,34.31,0,0,1,1.05,6.7l-2.1-4.52c1.83,7-1.26,13.48-.19,20.15-.34-14,1.82-3.18,2.84-9.12,2.45,17.21-3.88,10-2.77,29.25-.27-2.6.75-9.8,1.56-5.73-.23,3.7-.78,8.49-1.61,10.65.39,12.45,1.6-1.9,2.59,3.41a6.8,6.8,0,0,0-.41,5,20.8,20.8,0,0,1,.95,6.15l-1.58-.18c-1.56,6.74-1.08,7.79-.4,8.7s1.32,1.66-.78,7.71l-.9-5.72-.48,3.25c-.22,1.63-.53,3.26-.53,3.26L155.79,226c-.6,7.17-1.54,9.28-4.4,15.59,1.54-1.16,2.57,1.93.09,7.68-2.59,3.48-.3-2.71-3.84,5.29,0-2.2-.24-4.62,2.55-7.54-.33-.55-.16-2.16-.49-2.71a33.53,33.53,0,0,0-3.52,6.81c-1.09,2.37-1.95,4.69-2.66,6.07a20.21,20.21,0,0,1,1.82-2.84s-.81,3.08-1.93,6l-1.48,4.13-.78,1.82c-1.58,1.32-1.13-.25-.69-1.78-1.27,2.15-1.46,4.13-3.58,7.17-.49-1.52-1.59-2.06.65-6.7l-.8,1.63a36.48,36.48,0,0,1-1.86,3.54l-2.94,5c-1,.23-5.07,3.35-4.45,1.93-1.15,1.07-2.28,2.37-3.53,3.71s-2.4,3.06-3.76,4.54a33.49,33.49,0,0,1-10.07,8,8.86,8.86,0,0,1-2.39,2.25c-7.3,3.94-14.42,5.76-22.81,10.79l-3-.16L79,306c-7,2.69,8,.67-3.86,5.1C66.66,314,71.5,310,68.37,310c-3.82,1.94-11.47,5.56-19.14,2.94C51.77,312.75,53.78,313.08,56.19,312.85ZM27.4,262.7c-1,1.55-2.56,4.9-4.05,5.32C23.18,265.3,24.91,264.6,27.4,262.7ZM155.66,190.2c-1.19,1-3.37,1.46-6,1.71A25.07,25.07,0,0,1,155.66,190.2Zm88.11-48.67-.07-.2C244.46,137.08,244.16,138.59,243.77,141.53Zm-1,8.85c.19.9.41.84.65.47-.39-.64-.34-2.62-.15-4.89C242.83,146.58,242.5,147.72,242.76,150.38Zm-69.13-48.46-.44,1.72C172.79,99.72,173.19,100.83,173.64,101.92Z"/><path d="M140.12,197.93a1.49,1.49,0,0,1-1.07-.54C138.43,197.89,138.51,198.19,140.12,197.93Z"/><polygon points="109.88 293.56 110.13 293.43 110.22 293.02 109.88 293.56"/><path d="M261.8,12.42a15.42,15.42,0,0,1,3.51-2.34C265.12,9.71,264.2,10.14,261.8,12.42Z"/><path d="M245.57,197.44l-.53-5.67a18.3,18.3,0,0,1-.43,5.13C245,196.76,245.49,195.67,245.57,197.44Z"/><path d="M238.45,247.58c.27.82.17,1.76.44,2.58l.71-.28C239.26,246.32,238.45,243.86,238.45,247.58Z"/><path d="M240.5,202.89c-1.32.5-.72,4.08-.3,8.08l0-.71C242.09,211.36,241.29,207.13,240.5,202.89Z"/><path d="M240.29,211.9c.11,1.23.2,2.49.19,3.7C241.25,216,240.57,214.09,240.29,211.9Z"/><path d="M243.43,161.66c-.36,1.88,1.7,1.2,1.15,2.27C246.27,166.06,242.61,151.31,243.43,161.66Z"/><polygon points="236.23 206.32 237.82 204.81 236.4 202.61 236.23 206.32"/><path d="M236.67,174.52l-.37,6.43c.27-.1.45.71.6,1.72C236.89,178.71,237.13,174.37,236.67,174.52Z"/><path d="M236.9,182.67a25,25,0,0,0,.37,5.16C237.23,186.72,237.13,184.31,236.9,182.67Z"/><polygon points="235.37 197.54 235.66 195.62 235.7 191.07 235.37 197.54"/><path d="M240.23,105.63s0-1.76.14-3.51.23-3.5.23-3.5c-.46-.78-1.06,1.07-1.19,3.69C239.58,104,239.59,106.65,240.23,105.63Z"/><path d="M233.89,126.42a7.37,7.37,0,0,1,1.46-3l-2-.36Z"/><path d="M235.18,105.84c-.56-.76-.45-10.42-1.37-1.46C234.3,105.16,234.08,112.27,235.18,105.84Z"/><polygon points="274.64 9.26 273.02 10.15 274.97 12.87 274.64 9.26"/><path d="M311.91,84.06c1.78-4.27,1.44-5,1.09-5.49a1.43,1.43,0,0,1-.27-1.16c.09-.64.46-1.68,1-3.68-.21-1.14-.68.49-1.18,2.07-.68,1.54-1.34,3.06-1.35,1.94C310.39,83.12,309,85.75,311.91,84.06Z"/><path d="M311.2,77.74a16.88,16.88,0,0,0,.27-2.77C311.32,76.54,311.18,77.26,311.2,77.74Z"/><polygon points="41.73 146.3 36.38 146.81 39.99 147.15 41.73 146.3"/><path d="M32.31,151l-1.69-1.81-2.69,2.58C29.09,151.42,31.31,150.75,32.31,151Z"/><path d="M40.42,256.13l-.05-.64c-1,.09-1.88.85-3.67,2.38Z"/><polygon points="24.53 300.3 23.83 299.6 23.89 302.3 24.53 300.3"/><path d="M71.91,306.4c-2.15.46-4.57,1.38-6.74,1.66C69.72,306.94,73.07,308.58,71.91,306.4Z"/></svg>