<svg xmlns="http://www.w3.org/2000/svg" viewBox="0 0 57.38 54.88"><defs><style>.a{fill:#3e3a31;}.b{fill:#403c33;}.c{fill:#f9f9f9;}.d{fill:#f3f3f3;}.e{fill:#efeeed;}</style></defs><title>Website-Outline</title><path class="a" d="M2.89,39.41A26.94,26.94,0,0,1,1.68,17.88c0.73-.19,1.3-0.46.59-1.31l0.62-1.31,1-1.75a25.55,25.55,0,0,1,14-11.45C29.19-2,39.68-.15,48.77,7.88A24.8,24.8,0,0,1,57.25,24.8a24.74,24.74,0,0,1-2,12.9l-0.93,2L54,40.32a1.88,1.88,0,0,0-1.43,2.39l-0.08.12a3,3,0,0,0-2.39,2.79,26.14,26.14,0,0,1-13.61,8.17,29.67,29.67,0,0,1-26.25-5.17,12.41,12.41,0,0,1-1.16-1.1,3.66,3.66,0,0,0-.33-1.06q-2.46-3.54-5-7A1.66,1.66,0,0,0,2.89,39.41ZM37,13.27l0,0.45,1.14-.29L38.11,13a1.52,1.52,0,0,0-1.06.63l-0.13.07L37,13.78A1,1,0,0,0,37,13.27ZM21.37,37.81c-0.71.42-1.23,0.95-.63,1.79,0.72,1,1.61.84,3.38-.58l-2-1.27c-0.38-1.21-1.07-.57-1.74-0.2ZM26,28V26.63l2-1,0.82,0.59-1.58,1.06c1.4,1.33,2.66,1.36,3.92,0l-1.57-1,0.56-.77L33,26.63l0.22-.47-1.05-.94,3-2.24-1.94-.42,2.3-2.73-2.74-.14,3.6-3.08c1.1,1.8,1.49-.31,2.41-0.24L38,15.59,39,14.74l-0.19-.4-3.43.45,2.11-3.23-0.19-.25-2.44,1.47,2.39-7.14-0.38-.18L35.23,7.24l-0.43-.6-0.21.19L35.2,7.27,32.53,11.1l-0.71-1-0.57.61,1,0.69-1.35,1.7L29.58,6.48h-0.4L28.11,9.73,27.26,8.27l0.64-.8-0.39-.2-0.29,1L22.83,3.9l-0.28.17,2.81,7.46L19.6,7.82l-0.1,1-1.42-.59,1,1.87,0.8-.65L24.2,17l-0.14.18L21,15.8l-0.28.33,1.79,2.26-0.63.77,0.37,0.23,0.28-1,2.58,2.23-3.9-.37L25.41,25l-1,.53,1,0.53,0,0.56,0,1.45-2.11,1.24c1.7,1.67,3.11.89,4.6-.24Zm4.59,5.16c2.21,1.63,2.76,1.62,4.83-.05C33.81,31.6,32.19,31.73,30.6,33.13Zm1-2c-2.5-1.72-2.78-1.71-4.67.08C28.43,32.72,30,32.64,31.59,31.12Zm-0.08,4c-2.39-1.64-2.39-1.64-4.59,0C29.11,36.84,29.22,36.84,31.51,35.17Zm-3.75,2c-2.19-1.6-2.73-1.6-4.55,0C24.67,38.33,26.17,38.8,27.76,37.17Zm0-4c-1.62-1.61-3.22-1.44-4.78,0C25.23,34.74,25.53,34.75,27.76,33.15ZM30.61,41c2.14,1.48,2.51,1.47,4.26-.14C32.65,39.51,32.65,39.51,30.61,41Zm4.51-3.94c-2.14-1.51-2.31-1.51-4.55.13C32.85,38.66,33,38.66,35.12,37.07ZM23.38,40.94c1.53,1.38,3,1.47,4.38,0C26.33,39.6,24.89,39.63,23.38,40.94Zm7.93-1.84c-2.1-1.6-2.23-1.59-4.24,0C28.47,40.5,29.89,40.61,31.3,39.11Zm-0.05,3.76c-1.43-1.47-2.8-1.32-4.15,0C28.46,44.22,29.83,44.38,31.25,42.87ZM30.57,29.11c2.34,1.57,2.88,1.6,4.42.18C33.59,28.24,32.2,27.5,30.57,29.11ZM27.92,44.69c-2.54-1.3-2.78-1.3-4.42.11C25,45.65,26.48,46.22,27.92,44.69Zm6-5.73c1.36,0.82,2.3,1.93,3.53.73a1.42,1.42,0,0,0,.05-1.39C36.19,37,35.42,38.69,33.93,39Zm-3.39,5.78c1.85,1.39,1.85,1.39,4-.12C33.27,43.19,31.94,43.62,30.54,44.73ZM20.88,33.41l0.2,2.69L24,35.52,23.93,35ZM34,42.88a5.58,5.58,0,0,0,1.76.93,2.31,2.31,0,0,0,1.48-.67,1.17,1.17,0,0,0,0-1.08,2.25,2.25,0,0,0-1.44-.14A9.2,9.2,0,0,0,34,42.88Zm-2.92,3.66c-1.32-1.39-2.52-1.2-3.73,0A2.44,2.44,0,0,0,31.05,46.54Zm6-13-2.73,1.54v0.4l2.72,0.72V33.55ZM24.4,42.9a9.1,9.1,0,0,0-1.75-1,1.83,1.83,0,0,0-1.41.15,1.39,1.39,0,0,0,.06,1.28,1.4,1.4,0,0,0,1.18.51A8.85,8.85,0,0,0,24.4,42.9Zm3.22,5.89,0.06-.67c-1-.5-1.91-1.61-3.28.24ZM22.21,30.07l-0.94,2.65,2.83-1.6ZM23,6.9l-0.44.23,0.82,2.17,0.42-.16ZM38,7.1l-0.48-.22L37.12,8.19l0.39,0.12ZM20,34.61l-0.25,0a1.2,1.2,0,0,0-.18.5,1.62,1.62,0,0,0,.3.51l0.24-.09Zm18.3,4.09,0.35,0.47a1,1,0,0,0,.3-0.24,0.77,0.77,0,0,0-.27-0.41A0.91,0.91,0,0,0,38.27,38.71ZM20.4,31.23l0.35,0.47a1,1,0,0,0,.3-0.24,0.77,0.77,0,0,0-.27-0.41A0.91,0.91,0,0,0,20.4,31.23ZM31.07,7.71L30.8,7.59a0.53,0.53,0,0,0-.1.26A0.53,0.53,0,0,0,31,8Zm-8.76,7.48a0.53,0.53,0,0,0-.26-0.1,0.53,0.53,0,0,0-.12.26,0.53,0.53,0,0,0,.26.1A0.52,0.52,0,0,0,22.32,15.19Zm-2.72,24a0.53,0.53,0,0,0,.1-0.27,0.53,0.53,0,0,0-.26-0.12,0.53,0.53,0,0,0-.1.26A0.53,0.53,0,0,0,19.59,39.21Zm10.07,9.12V48.19H29.18v0.14h0.48Z"/><path class="b" d="M2.89,39.41a1.66,1.66,0,0,1,.85,0q2.55,3.48,5,7a3.66,3.66,0,0,1,.33,1.06A20.11,20.11,0,0,1,2.89,39.41Z"/><path class="b" d="M50.1,45.62a3,3,0,0,1,2.39-2.79Z"/><path class="b" d="M52.58,42.71A1.88,1.88,0,0,1,54,40.32Z"/><path class="b" d="M54.34,39.67l0.93-2Z"/><path class="b" d="M3.86,13.51l-1,1.75Z"/><path class="b" d="M2.27,16.57c0.71,0.84.14,1.11-.59,1.31Z"/><path class="c" d="M25.41,25l-4.22-4.71,3.9,0.37-2.58-2.23,0,0L20.7,16.13,21,15.8l3.08,1.43,0.2,0.2L24.2,17,19.87,9.41l-0.38-.63,0.1-1,5.76,3.71L22.55,4.07l0.28-.17,4.39,4.34,0,0,0.85,1.46,1.07-3.25h0.4l1.34,6.62,1.35-1.7,0.25-.31L35.2,7.27l0,0,1.63-1.79,0.38,0.18-2.39,7.14,2.44-1.47,0.19,0.25-2.11,3.23,3.43-.45L39,14.74,38,15.59l-1.72,1-3.6,3.08,2.74,0.14-2.3,2.73L35.1,23l-3,2.24,1.05,0.94L33,26.63l-2.84-1.17L28,25.62l-2,1-0.55,0,0-.56h0c1.31-.35.33-0.72,0-1.08h0Z"/><path class="d" d="M30.6,33.13c1.6-1.4,3.22-1.53,4.83-.05C33.35,34.75,32.81,34.76,30.6,33.13Z"/><path class="d" d="M31.59,31.12c-1.62,1.52-3.16,1.59-4.67.08C28.81,29.41,29.09,29.4,31.59,31.12Z"/><path class="d" d="M31.51,35.17c-2.29,1.67-2.39,1.67-4.59,0C29.12,33.53,29.12,33.53,31.51,35.17Z"/><path class="e" d="M26,28l1.89,1.09c-1.5,1.12-2.9,1.9-4.6.24L25.4,28Z"/><path class="e" d="M27.76,37.17c-1.59,1.63-3.09,1.16-4.55,0C25,35.57,25.56,35.57,27.76,37.17Z"/><path class="e" d="M28,25.62l2.15-.17-0.56.77,1.57,1c-1.27,1.4-2.52,1.37-3.92,0l1.58-1.06Z"/><path class="d" d="M27.76,33.15c-2.23,1.6-2.53,1.6-4.78,0C24.54,31.71,26.14,31.54,27.76,33.15Z"/><path class="e" d="M22.09,37.75l2,1.27c-1.76,1.43-2.66,1.59-3.38.58-0.6-.84-0.08-1.37.63-1.79Z"/><path class="e" d="M30.61,41c2-1.5,2-1.5,4.26-.14C33.12,42.48,32.75,42.49,30.61,41Z"/><path class="d" d="M35.12,37.07c-2.16,1.59-2.27,1.59-4.55.13C32.81,35.57,33,35.56,35.12,37.07Z"/><path class="e" d="M23.38,40.94c1.52-1.31,3-1.34,4.38,0C26.34,42.41,24.9,42.32,23.38,40.94Z"/><path class="e" d="M31.3,39.1c-1.41,1.5-2.84,1.39-4.24,0C29.07,37.51,29.2,37.51,31.3,39.1Z"/><path class="e" d="M31.25,42.87c-1.42,1.51-2.79,1.35-4.15,0C28.45,41.55,29.82,41.4,31.25,42.87Z"/><path class="e" d="M30.57,29.11c1.64-1.61,3-.87,4.42.18C33.45,30.7,32.9,30.68,30.57,29.11Z"/><path class="d" d="M27.92,44.69c-1.43,1.53-2.9,1-4.42.11C25.14,43.39,25.37,43.39,27.92,44.69Z"/><path class="d" d="M33.93,39c1.49-.26,2.26-2,3.58-0.66a1.42,1.42,0,0,1-.05,1.39C36.23,40.89,35.3,39.77,33.93,39Z"/><path class="e" d="M30.54,44.73c1.4-1.11,2.73-1.54,4-.12C32.4,46.12,32.4,46.12,30.54,44.73Z"/><path class="e" d="M20.88,33.41l3,1.59L24,35.52l-2.94.58Z"/><path class="d" d="M34,42.88a9.2,9.2,0,0,1,1.76-1,2.25,2.25,0,0,1,1.44.14,1.17,1.17,0,0,1,0,1.08,2.31,2.31,0,0,1-1.48.67A5.58,5.58,0,0,1,34,42.88Z"/><path class="e" d="M31.05,46.54a2.44,2.44,0,0,1-3.73,0C28.54,45.34,29.74,45.15,31.05,46.54Z"/><path class="e" d="M37.08,33.55v2.66l-2.72-.72v-0.4Z"/><path class="d" d="M24.4,42.9a8.85,8.85,0,0,1-1.93,1,1.4,1.4,0,0,1-1.18-.51,1.39,1.39,0,0,1-.06-1.28,1.83,1.83,0,0,1,1.41-.15A9.1,9.1,0,0,1,24.4,42.9Z"/><path class="e" d="M27.63,48.79l-3.22-.44c1.38-1.85,2.31-.74,3.28-0.24Z"/><path class="e" d="M22.21,30.07l1.89,1.05-2.83,1.6Z"/><path class="b" d="M36.31,16.61l1.72-1,0.69,0.78C37.8,16.3,37.41,18.41,36.31,16.61Z"/><path class="b" d="M19.49,8.78l0.38,0.63-0.8.65-1-1.87Z"/><path class="b" d="M32.53,11.1l-0.25.31-1-.69,0.57-.61Z"/><path class="b" d="M23,6.9l0.8,2.25-0.42.16L22.52,7.14Z"/><path class="b" d="M22.09,37.75l-0.72.06-1-.26C21,37.17,21.72,36.54,22.09,37.75Z"/><path class="b" d="M38,7.1L37.51,8.31l-0.39-.12,0.37-1.32Z"/><path class="b" d="M26,28L25.4,28l0-1.45,0.55,0V28Z"/><path class="b" d="M25.4,26l-1-.53,1-.53h0v1.08h0Z"/><path class="b" d="M37,13.27L38.11,13l0.11,0.41-1.14.29Z"/><path class="b" d="M20,34.61l0.12,0.9-0.24.09a1.62,1.62,0,0,1-.3-0.51,1.2,1.2,0,0,1,.18-0.5Z"/><path class="b" d="M27.22,8.24l0.29-1,0.39,0.2-0.64.8Z"/><path class="b" d="M22.52,18.41l-0.28,1-0.37-.23,0.63-.78Z"/><path class="b" d="M38.27,38.71a0.91,0.91,0,0,1,.38-0.18,0.77,0.77,0,0,1,.27.41,1,1,0,0,1-.3.24Z"/><path class="b" d="M20.4,31.23a0.91,0.91,0,0,1,.38-0.18,0.77,0.77,0,0,1,.27.41,1,1,0,0,1-.3.24Z"/><path class="b" d="M31.07,7.71L31,8a0.53,0.53,0,0,1-.26-0.12,0.53,0.53,0,0,1,.1-0.26Z"/><path class="b" d="M35.2,7.27l-0.61-.44,0.21-.19,0.43,0.6Z"/><path class="b" d="M22.32,15.19a0.53,0.53,0,0,1-.12.26,0.53,0.53,0,0,1-.26-0.1,0.53,0.53,0,0,1,.12-0.26A0.53,0.53,0,0,1,22.32,15.19Z"/><path class="b" d="M19.59,39.21a0.53,0.53,0,0,1-.26-0.12,0.53,0.53,0,0,1,.1-0.26,0.53,0.53,0,0,1,.26.12A0.53,0.53,0,0,1,19.59,39.21Z"/><path class="b" d="M29.66,48.33H29.18V48.19h0.48v0.14Z"/><polygon class="b" points="37.06 13.65 36.98 13.78 36.92 13.72 37.06 13.65"/><path class="a" d="M25.39,26.05V25C25.73,25.33,26.71,25.7,25.39,26.05Z"/><path class="a" d="M24.2,17l0.06,0.38-0.2-.2Z"/></svg>