<svg xmlns="http://www.w3.org/2000/svg" viewBox="0 0 357.43 357.43"><defs><style>.a{fill:#a58554;}.b{fill:#010101;}.c{fill:#fff;}.d{fill:#d1b48f;}</style></defs><title>Artboard 24</title><circle class="a" cx="178.72" cy="178.72" r="178.72"/><path class="b" d="M249,217.83H123.75a1.59,1.59,0,0,0,0,3.18H249A1.59,1.59,0,0,0,249,217.83Z"/><path class="b" d="M249.08,157.56H123.7a1.59,1.59,0,0,0,0,3.18H249.08A1.59,1.59,0,0,0,249.08,157.56Z"/><path class="b" d="M249,217.83H123.75a1.59,1.59,0,0,0,0,3.18H249A1.59,1.59,0,0,0,249,217.83Z"/><path class="b" d="M249.08,157.56H123.7a1.59,1.59,0,0,0,0,3.18H249.08A1.59,1.59,0,0,0,249.08,157.56Z"/><path class="b" d="M251.73,223.82H121.82a1.59,1.59,0,0,0,0,3.18H251.73A1.59,1.59,0,0,0,251.73,223.82Z"/><path class="b" d="M251.78,161.32h-130a1.59,1.59,0,0,0,0,3.18h130A1.59,1.59,0,0,0,251.78,161.32Z"/><polygon class="c" points="251.73 71.4 251.73 309.85 116.56 309.85 116.18 98.5 101.81 71.4 251.73 71.4"/><path class="c" d="M249.61,71.4V309.85l2.12-2.12H116.56l2.12,2.12q-.08-44.22-.16-88.45-.1-58-.21-115.9c0-2.84.62-6.34-.75-8.92L103.64,70.33l-1.83,3.19H251.73c2.74,0,2.74-4.24,0-4.24H101.81A2.14,2.14,0,0,0,100,72.47l12.24,23.1,2,3.72c.47.88-.14-1.5-.14-.47s0,2.23,0,3.34q0,21.09.08,42.18.12,65.78.24,131.57,0,17,.06,34a2.14,2.14,0,0,0,2.12,2.12H251.73a2.14,2.14,0,0,0,2.12-2.12V71.4C253.85,68.66,249.61,68.66,249.61,71.4Z"/><path class="c" d="M254.74,58.72c0-5.17-3.55-5.36-3.55-5.36H100.86s-2,0-2,5.21c0,5.45,2,5.21,2,5.21L251.19,64C252.43,64,254.74,63.1,254.74,58.72Z"/><path class="c" d="M256.33,58.72c-.31-6.28-4-7-8.88-7H107.05c-2.85,0-7-1-8.81,1.82s-2,11.47,2.59,11.79c.81.06,1.65,0,2.46,0l115.85.18,25.87,0c5.6,0,11,.78,11.33-6.88.1-2.05-3.08-2-3.18,0-.16,3.3-1.19,3.71-3.66,3.7h-6.43l-23.93,0-67.79-.1-48.06-.07c-.82,0-1.64,0-2.46,0,.16,0-.36-2.92-.38-3.62a7.68,7.68,0,0,1,.54-3.38c.23-.5.37-.29-.12-.25.24,0,.49,0,.73,0H248.77c2.85,0,4.18-.18,4.38,3.77C253.25,60.76,256.43,60.77,256.33,58.72Z"/><path class="c" d="M144.67,76.13a1.32,1.32,0,0,0-1.23,1.37V92.34a.85.85,0,0,0,.95.89h5.76v99.66a4.89,4.89,0,0,0,1.24,3.41,5.73,5.73,0,0,0,3.49,1.86h56.45a6.16,6.16,0,0,0,4.15-1.62c1.91-1.8,1.84-3,1.84-3V92.87h5.81s.85,0,.85-2.18V76.13H144.67Z"/><path class="d" d="M144.1,74.08c-2.13.36-2.79,2.33-2.79,4.22V88c0,1.71-.74,5.9,1.3,6.85,2.23,1,5.12.52,7.53.52L148,93.24V192c0,3.53,1.38,6.25,4.78,7.79,1.89.85,4.25.52,6.26.52h52.27c3.66,0,8.11-3,8.11-7V92.87L217.32,95c4.19,0,8.79,1.05,8.79-4.63V76.13A2.14,2.14,0,0,0,224,74H144.67c-2.74,0-2.74,4.24,0,4.24H224l-2.12-2.12V90c0,1.2,1.88.79.48.79h-5a2.14,2.14,0,0,0-2.12,2.12v99.42c0,5.12-8.43,3.75-12.17,3.75H157.63c-2.37,0-5.36.31-5.36-3.2V93.24a2.14,2.14,0,0,0-2.12-2.12h-4.88c-2,0,.3,1.31.3,0V77.85q-.91.46-.33.32C147.93,77.72,146.78,73.63,144.1,74.08Z"/><rect class="a" x="118.34" y="284.75" width="130.74" height="23.15"/><rect class="a" x="118.34" y="156.96" width="130.74" height="63.26"/><path class="c" d="M150.12,159.15H148V196.1h2.12L148,196s0,.1,0,.19a7.94,7.94,0,0,0,.25,1.94,6.81,6.81,0,0,0,.55,1.44,5.57,5.57,0,0,0,1.11,1.48,9.55,9.55,0,0,0,3.21,2.07,5.22,5.22,0,0,0,1.74.36h56.45v-2.12l-.1,2.12h.18a8.16,8.16,0,0,0,2.16-.31,8.07,8.07,0,0,0,3.36-1.88,8.91,8.91,0,0,0,2.07-2.75,4.42,4.42,0,0,0,.44-1.8v-.07l-2.12.06h2.12V157H148v2.12h2.12v2.12h65.06v35.51l1.63,0h-1.63v0l1.63,0h-.49l-1.14-.12v.12h1.14l-1.14-.12.36,0-.36-.07v0l.36,0-.36-.07a1.47,1.47,0,0,1-.18.4,5.49,5.49,0,0,1-1,1.2,3.82,3.82,0,0,1-1.6.89,4,4,0,0,1-1,.16h0l0,1.18.06-1.18h0l0,1.18.06-1.18H154.86v1.25l.1-1.24h-.1v1.25l.1-1.24v.16l0-.16h0v.16l0-.16a4.21,4.21,0,0,1-2.14-1.28,1.35,1.35,0,0,1-.26-.36,2.88,2.88,0,0,1-.26-.82,3.61,3.61,0,0,1-.05-.59h0v-37h-2.12v0Z"/><polyline class="a" points="152.27 161.87 215.19 161.87 215.19 156.92 152.27 156.92"/></svg>