<svg xmlns="http://www.w3.org/2000/svg" viewBox="0 0 57.62 54.89"><defs><style>.a{fill:#274433;}.b{fill:#f8f8f8;}.c{fill:#153422;}.d{fill:#072a17;}.e{fill:#254231;}.f{fill:#1d3927;}</style></defs><title>Website-Outline</title><path class="a" d="M29.68,0A30.16,30.16,0,0,1,48.8,7.77a26.06,26.06,0,0,1,8.66,17C59.23,41,46.22,53.38,32.13,54.72A29.43,29.43,0,0,1,8.57,47.09,25.48,25.48,0,0,1,.18,30.61C-1.69,14,11.28,1.63,25.65.35ZM19,5.28a5.55,5.55,0,0,0-.55,1.63c0,6.08,0,12.17-.07,18.25a5.36,5.36,0,0,1-.93,1.92l-0.1.62a3.27,3.27,0,0,0-.53,1.16q0,10,0,20a3.28,3.28,0,0,0,.64,1.23l1.34-.32a5.43,5.43,0,0,0,.57-1.62c0-5.3,0-10.59,0-15.89a6.47,6.47,0,0,1,.51-1.72c1.19,1.53,2.4,3,3.56,4.61A2.07,2.07,0,0,1,24,36.47c-0.23,1.7-.58,3.39-0.9,5.08-0.46,2.45-1,4.9-1.37,7.35A4.21,4.21,0,0,0,22,50.34a4.93,4.93,0,0,0,1.19-.83c1.88-2.4,3.71-4.84,5.64-7.38,2,2.6,3.82,5.05,5.7,7.47a4.54,4.54,0,0,0,1.07.76,3.81,3.81,0,0,0,.33-1.4,68.79,68.79,0,0,0-1.55-7.76c-1-3.46-.89-6.48,2-9a18,18,0,0,0,1.6-2,5.68,5.68,0,0,1,1-.71l-0.1,1.19a3.91,3.91,0,0,0-.55,1.31q-0.06,8.27,0,16.54a3.81,3.81,0,0,0,.56,1.3c0.48,0.82,1,.79,1.43,0a3.82,3.82,0,0,0,.56-1.31q0.05-9.74,0-19.47a3.86,3.86,0,0,0-.55-1.31l-0.42-.45a9.06,9.06,0,0,1-.6-2.23c0-6,0-12.05-.05-18.08a5.54,5.54,0,0,0-.56-1.64L35,5.26A2.85,2.85,0,0,0,34.12,5q-5.31,0-10.62,0a2.87,2.87,0,0,0-.86.3Z"/><path class="b" d="M39.84,27.25l0.42,0.45V49.79c-0.48.79-1,.82-1.43,0V30.63l0.1-1.19a5.68,5.68,0,0,0-1,.71,18,18,0,0,1-1.6,2c-2.88,2.55-3,5.57-2,9A68.79,68.79,0,0,1,35.91,49a3.81,3.81,0,0,1-.33,1.4,4.54,4.54,0,0,1-1.07-.76c-1.88-2.42-3.72-4.87-5.7-7.47-1.93,2.53-3.76,5-5.64,7.38a4.93,4.93,0,0,1-1.19.83,4.21,4.21,0,0,1-.29-1.43c0.41-2.46.91-4.9,1.37-7.35,0.32-1.69.67-3.38,0.9-5.08a2.07,2.07,0,0,0-.48-1.31c-1.15-1.56-2.37-3.08-3.56-4.61L19.4,30l-0.53-.39L18.8,30q0,9.91,0,19.81l-1.34.32c0-.81,0-1.62,0-2.43q0-10-.08-20l0.1-.62L19,27.23V5.28l3.65,0H35l3.64,0q0,10.27,0,20.54C38.62,26.72,38.59,27.51,39.84,27.25ZM35,13.39L35,14l-0.94,5.2L34,19.88,33.76,21l-1,5.77a1.61,1.61,0,0,0,.6.59c1.28,0.06,2.56,0,3.87,0V6.09c-1.64,1-1.06,2.58-1.5,3.74l-0.34,1.62-0.13.93ZM20.39,7.87V27.24h4.74L24.28,24.4a0.66,0.66,0,0,0,0-.28L24,22.78a0.64,0.64,0,0,0-.05-0.28l-0.28-1.34,0-1.58-0.92-5.21-0.3-1.59-0.36-1,0-.61C21.8,9.76,21.69,8.39,21.43,7c-0.17-.9-0.36-0.9-1.05-0.15v1ZM28.82,39.6c3.34-2.48,3.58-5.68,1.9-9.4H26.85C25.32,33.77,25.28,37.12,28.82,39.6Zm3.45-2L29.65,41,33,45.36C33.76,44.43,33.51,41.94,32.27,37.57Zm-7-.09C24.81,40.29,24,42.69,24,45.2l0.58,0.22L28,41Zm7-7.45,0.84,4.24L36.27,30h-4Zm-6.94-.26-4,.33,3.18,4.17Z"/><path class="c" d="M17.34,27.7q0,10,.08,20c0,0.81,0,1.62,0,2.43a3.28,3.28,0,0,1-.64-1.23q-0.06-10,0-20A3.27,3.27,0,0,1,17.34,27.7Z"/><path class="c" d="M40.25,49.79V27.7A3.86,3.86,0,0,1,40.81,29q0.05,9.74,0,19.47A3.82,3.82,0,0,1,40.25,49.79Z"/><path class="d" d="M19,5.28V27.23l-1.54-.14a5.36,5.36,0,0,0,.93-1.92c0.07-6.08,0-12.16.07-18.25A5.55,5.55,0,0,1,19,5.28Z"/><path class="d" d="M39.84,27.25c-1.25.26-1.22-.53-1.22-1.41q0-10.27,0-20.54a5.55,5.55,0,0,1,.56,1.64c0,6,0,12.05.05,18.08A9.06,9.06,0,0,0,39.84,27.25Z"/><path class="c" d="M19.4,30l0.52,0.59a6.47,6.47,0,0,0-.51,1.72c0,5.3,0,10.59,0,15.89a5.43,5.43,0,0,1-.57,1.62q0-9.91,0-19.81h0.6Z"/><path class="c" d="M38.81,30.63V49.79a3.81,3.81,0,0,1-.56-1.3q-0.06-8.27,0-16.54A3.91,3.91,0,0,1,38.81,30.63Z"/><path class="e" d="M28.82,39.6c-3.53-2.48-3.5-5.83-2-9.4h3.86C32.39,33.92,32.16,37.12,28.82,39.6Z"/><path class="a" d="M32.73,26.72l1-5.77L34,19.88l0.09-.64a1.14,1.14,0,0,0,.5-0.32c0.28-1.62.52-3.25,0.77-4.88l0.32-.65-0.42-1,0.13-.93L36,9.82l0.65-1.11V22.84C36.61,26.71,36.61,26.71,32.73,26.72Z"/><path class="a" d="M22,11.12l0,0.61,0.36,1,0.3,1.59c-0.83,1.94.18,3.55,0.92,5.21l0,1.58,0.28,1.34a0.64,0.64,0,0,1,.05.28l0.29,1.35a0.66,0.66,0,0,1,0,.28l-0.11,2.32a12.39,12.39,0,0,1-2.27,0,1.27,1.27,0,0,1-.85-0.85C21,20.5,21,15.17,21,9.36Z"/><path class="f" d="M22,11.12L21,9.36c0,5.8,0,11.13,0,16.46a1.27,1.27,0,0,0,.85.85,12.39,12.39,0,0,0,2.27,0l0.11-2.32,0.86,2.84H20.39q0-9.68,0-19.36L21,7.46,20.38,6.9c0.69-.75.88-0.75,1.05,0.15C21.69,8.39,21.8,9.76,22,11.12Z"/><path class="f" d="M32.73,26.72c3.89,0,3.89,0,3.89-3.88V8.71L36,9.82H35.7c0.44-1.16-.15-2.73,1.5-3.74V27.34c-1.31,0-2.59,0-3.87,0A1.61,1.61,0,0,1,32.73,26.72Z"/><path class="e" d="M32.27,37.57c1.24,4.36,1.49,6.86.7,7.79L29.65,41Z"/><path class="e" d="M25.24,37.48L28,41l-3.37,4.38L24,45.2C24,42.69,24.81,40.29,25.24,37.48Z"/><path class="e" d="M32.28,30h4l-3.14,4.24Z"/><path class="e" d="M25.35,29.77l-0.84,4.5-3.18-4.17Z"/><path class="f" d="M23.6,19.57c-0.74-1.66-1.75-3.27-.92-5.21Z"/><path class="c" d="M35.32,14c-0.25,1.63-.49,3.26-0.77,4.88a1.14,1.14,0,0,1-.5.32L35,14h0.33Z"/><path class="f" d="M24.25,24.12L24,22.78Z"/><path class="c" d="M35.7,9.82H36l-0.6,1.62Z"/><path class="c" d="M35.22,12.38l0.42,1H35Z"/><path class="a" d="M20.38,6.9L21,7.46l-0.56.42v-1Z"/><path class="f" d="M23.9,22.49l-0.28-1.34Z"/><path class="f" d="M35,13.39h0.6L35.32,14H35Z"/><path class="c" d="M34,19.88L33.76,21Z"/><path class="f" d="M22.37,12.76l-0.36-1Z"/><path class="a" d="M19.4,30H18.8l0.07-.4Z"/></svg>