<?xml version="1.0" encoding="utf-8"?>
<!-- Generator: Adobe Illustrator 19.2.1, SVG Export Plug-In . SVG Version: 6.00 Build 0)  -->
<!DOCTYPE svg PUBLIC "-//W3C//DTD SVG 1.1//EN" "http://www.w3.org/Graphics/SVG/1.1/DTD/svg11.dtd">
<svg version="1.1" id="Layer_1" xmlns="http://www.w3.org/2000/svg" xmlns:xlink="http://www.w3.org/1999/xlink" x="0px" y="0px"
	 viewBox="0 0 57.7 54.9" enable-background="new 0 0 57.7 54.9" xml:space="preserve">
<g>
	<path fill="#353337" d="M29.4,54.9c-14.4,0-27-9.3-29.1-23.5c-2-13,5.8-25.3,18.2-29.5C29.7-1.9,39.9,0,48.9,7.7
		c5.1,4.5,7.9,10.2,8.6,17C59.2,41,46.2,53.4,32.1,54.6C31.2,54.7,30.3,54.8,29.4,54.9z M34.7,9.7C34.8,9.5,34.9,9.2,35,9l0,0
		c0.1-0.3,0.2-0.7,0.3-1c0-0.2,0.1-0.4,0.1-0.6c1.2-0.8,0.6-1.5-0.1-2.2l0,0C35.2,5,35,4.8,34.9,4.6c-0.2-0.2-0.4-0.4-0.6-0.6
		c-0.2-0.1-0.5-0.2-0.7-0.4l0,0c-0.8-1-1.8-1-2.9-0.4c-0.4,0-0.9,0-1.3,0c-1.1-0.5-2.1-0.6-2.9,0.5c-3.2,1.3-4.2,3.7-2.9,6.8
		c0.3,0.6,0.4,1.3,0.8,1.9c0.7,1.1,0.6,2.2-0.2,3.2c-1.9,2.4-1.8,5.2-1.5,7.9c0.4,3.2,0.9,6.3,1.7,9.4c0.4,1.5-1.3,3.2,0.5,4.4
		c0.1,0-0.2,0.7-0.4,1c-0.1,0.3-0.3,0.7-0.4,1c0.2,0,0.3-0.1,0.5-0.1c0.3,0.5,1,1.4,0.8,1.5c-1.4,1.6-0.1,2.5,0.6,3.7
		c0.1,0.2,0,0.4,0.1,0.6c0.3,1.5,0.6,3,0.9,4.5c1,0,1.9,0,2.9,0.1c0.1-0.2,0.3-0.4,0.4-0.6c1-1.2,1.1-2.5,0.6-3.9
		c0.3-0.9,0.7-1.8,1-2.8c0.3-0.2-0.1-0.5-0.1-0.8c-0.1-0.6,0-1.8,0.2-1.8c2.4-0.6,0.3-1.1-0.1-1.8c0.4-0.6,0.9-1.3,1.4-2
		c-0.2-0.4-0.8-0.9-0.7-1.4c0.3-3.1,0.4-6.3,1.3-9.2c0.9-3,0.8-5.8,0.3-8.8c0.1-0.2,0.3-0.5,0.3-0.7c-0.1-1.8-0.2-3.7-0.3-5.5l0,0
		C34.4,10.1,34.6,9.9,34.7,9.7C34.7,9.7,34.7,9.7,34.7,9.7z"/>
	<path fill="#FAFAFA" d="M27.2,49.6c-0.3-1.5-0.6-3-0.9-4.5c0-0.2,0-0.5-0.1-0.6c-0.7-1.1-2-2.1-0.6-3.7c0.1-0.1-0.5-1-0.8-1.5
		c-0.2,0-0.3,0.1-0.5,0.1c0.1-0.3,0.3-0.6,0.4-1c0.1-0.3,0.4-1,0.4-1c-1.9-1.2-0.1-2.9-0.5-4.4c-0.8-3.1-1.3-6.2-1.7-9.4
		c-0.3-2.7-0.4-5.5,1.5-7.9c0.7-0.9,0.8-2,0.2-3.2c-0.3-0.6-0.5-1.3-0.8-1.9c-1.3-3.2-0.2-5.6,2.9-6.8c1-0.2,1.9-0.3,2.9-0.5
		c0.4,0,0.9,0,1.3,0c1,0.1,1.9,0.3,2.9,0.4c0,0,0,0,0,0c0.2,0.1,0.5,0.2,0.7,0.4c0.2,0.2,0.4,0.4,0.6,0.6C35,4.8,35.2,5,35.3,5.3
		c0,0,0,0,0,0c0,0.7,0.1,1.5,0.1,2.2c0,0.2-0.1,0.4-0.1,0.6c-0.1,0.3-0.2,0.7-0.3,1c0,0,0,0,0,0c-0.1,0.2-0.2,0.5-0.3,0.7
		c0,0,0,0,0,0c-0.1,0.2-0.2,0.5-0.3,0.7c0,0,0,0,0,0c-1.2,2.1-0.4,4.1,0.1,6.2c0.5,2.9,0.5,5.8-0.3,8.8c-0.8,3-1,6.1-1.3,9.2
		c-0.1,0.5,0.5,1,0.7,1.4c-0.5,0.7-1,1.4-1.4,2c0.3,0.7,2.4,1.3,0.1,1.8C32,39.8,32,41,32,41.6c0,0.3,0.4,0.6,0.1,0.8
		c-0.3,0.9-0.7,1.8-1,2.8c-0.2,1.3-0.4,2.6-0.6,3.9c-0.1,0.2-0.3,0.4-0.4,0.6C29.2,49.6,28.2,49.6,27.2,49.6z M31.4,34.7
		c0-0.1,0-0.2,0.1-0.3c0.1-0.2,0.2-0.5,0.3-0.7c0.2-1.7,0.4-3.5,0.6-5.2c0-0.1,0.1-0.2,0.1-0.3c0.2-0.5,0.3-0.9,0.6-1.6
		c-2.8,0-5.3,0-7.9,0c-0.2,0-0.3,0.4-0.5,0.5c0.1,0.7,0.2,1.3,0.3,2c0.2,1.4,0.4,2.8,0.6,4.2c0,0.2,0.1,0.5,0.1,0.7
		c0,0.8,0.3,1.2,1.2,1.2c1.3-0.1,2.5,0,3.8,0C31,35.2,31.2,34.9,31.4,34.7z M30.5,41.2c0-0.3,0-0.6,0-0.9c0-0.2,0-0.6,0-0.6
		c-1.3,0-2.6,0-4.1,0c0.3,0.9,0.6,1.6,0.8,2.2c1,0,2,0,2.9,0C30.3,41.7,30.4,41.4,30.5,41.2z M31.1,37.7c0.1-0.4,0.2-0.8,0.3-1.3
		c-1.6,0-3,0-4.5,0c-0.9,0-0.8,0.4-0.7,1c0.2,0.4,0.5,1.3,0.7,1.3c1.4-0.3,3,0.9,4.2-0.6C31.2,37.9,31.1,37.8,31.1,37.7z M27.9,48.3
		c1.5,0.2,1.5,0.2,1.7-1c0.2-1.4,0.4-2.8,0.6-4.1c-0.8,0-1.5-0.1-2.2,0c-0.3,0.1-0.7,0.6-0.7,0.9C27.5,45.5,27.7,46.9,27.9,48.3z"/>
	<path fill="#252227" d="M34.4,16.5c-0.5-2.1-1.3-4.1-0.1-6.2c0.1,1.8,0.2,3.7,0.3,5.5C34.7,16.1,34.5,16.3,34.4,16.5z"/>
	<path fill="#252227" d="M30.5,49c0.2-1.3,0.4-2.6,0.6-3.9C31.6,46.6,31.5,47.9,30.5,49z"/>
	<path fill="#252227" d="M34.3,10.4c0.1-0.2,0.2-0.5,0.3-0.7C34.6,9.9,34.4,10.1,34.3,10.4z"/>
	<path fill="#353337" d="M31.8,33.8c-0.1,0.2-0.2,0.5-0.3,0.7c-0.2,0.1-0.5,0.2-0.7,0.3c-1.4,0-2.8,0-4.3,0
		c-0.1-0.1-0.2-0.2-0.3-0.3c-0.2-0.1-0.4-0.2-0.6-0.3c0-0.2-0.1-0.5-0.1-0.7c0.2-0.2,0.6-0.4,0.6-0.6c-0.1-0.9-0.2-1.9-0.4-2.8
		c-0.1-0.3-0.5-0.6-0.8-0.9c-0.1-0.7-0.2-1.3-0.3-2c2.2,0,4.4,0,6.6,0c0.8,0,1.3,0.1,1.2,1c0,0.1,0,0.2-0.1,0.3
		C32.2,30.3,32,32,31.8,33.8z"/>
	<path fill="#353337" d="M27.9,48.3c-0.2-1.4-0.4-2.8-0.6-4.2c0-0.3,0.4-0.8,0.7-0.9c0.7-0.1,1.4,0,2.2,0c-0.2,1.3-0.3,2.7-0.6,4.1
		C29.5,48.5,29.4,48.5,27.9,48.3z"/>
	<path fill="#353337" d="M31.1,37.7c0,0.1,0.1,0.3,0,0.3c-1.2,1.5-2.8,0.3-4.2,0.6c-0.1,0-0.4-0.8-0.7-1.3
		C27.6,36.2,30.3,36.4,31.1,37.7z"/>
	<path fill="#252227" d="M32.4,28.3c0.1-0.9-0.5-1-1.2-1c-2.2,0-4.4,0-6.6,0c0.2-0.2,0.3-0.5,0.5-0.5c2.5,0,5,0,7.9,0
		C32.8,27.4,32.6,27.8,32.4,28.3z"/>
	<path fill="#353337" d="M30.2,41.9c-1,0-2,0-2.9,0c-0.1-1.1,0.3-1.7,1.5-1.6c0.6,0.1,1.2,0,1.8,0c0,0.3,0,0.6,0,0.9
		C30.4,41.4,30.3,41.7,30.2,41.9z"/>
	<path fill="#252227" d="M25.7,34.1c0.2,0.1,0.4,0.2,0.6,0.3c0.1,0.1,0.2,0.2,0.3,0.3c1.4,0,2.8,0,4.3,0c0.2,0,0.4,0,0.6,0
		c-0.2,0.2-0.4,0.5-0.7,0.5c-1.3,0.1-2.6,0-3.8,0C26,35.4,25.7,35,25.7,34.1z"/>
	<path fill="#252227" d="M30.5,40.3c-0.6,0-1.2,0-1.8,0c-1.2-0.1-1.7,0.5-1.5,1.6c-0.2-0.7-0.5-1.3-0.8-2.2c1.5,0,2.8,0,4.1,0
		C30.5,39.7,30.5,40.1,30.5,40.3z"/>
	<path fill="#403C33" d="M25,29.2c0.3,0.3,0.7,0.5,0.8,0.9c0.2,0.9,0.3,1.8,0.4,2.8c0,0.2-0.4,0.4-0.6,0.6
		C25.4,32,25.2,30.6,25,29.2z"/>
	<path fill="#252227" d="M31.8,33.8c0.2-1.7,0.4-3.5,0.6-5.2C32.2,30.3,32,32,31.8,33.8z"/>
	<path fill="#050808" d="M31.1,37.7c-0.8-1.2-3.5-1.4-4.8-0.3c-0.2-0.6-0.2-1,0.7-1c1.5,0.1,2.9,0,4.5,0
		C31.3,36.8,31.2,37.3,31.1,37.7z"/>
	<path fill="#252227" d="M30.2,41.9c0.1-0.2,0.2-0.4,0.4-0.6C30.4,41.4,30.3,41.7,30.2,41.9z"/>
	<path fill="#403C33" d="M31.4,34.7c-0.2,0-0.4,0-0.6,0c0.2-0.1,0.5-0.2,0.7-0.3C31.5,34.5,31.5,34.6,31.4,34.7z"/>
	<path fill="#403C33" d="M26.6,34.7c-0.1-0.1-0.2-0.2-0.3-0.3C26.4,34.5,26.5,34.6,26.6,34.7z"/>
</g>
</svg>
