<svg xmlns="http://www.w3.org/2000/svg" viewBox="0 0 357.43 357.43"><defs><style>.a{fill:#545554;}.b{fill:#fff;}</style></defs><title>Artboard 25</title><circle class="a" cx="178.72" cy="178.72" r="178.72"/><path class="b" d="M159.58,315.23h47.93a1.92,1.92,0,0,0,0-3.84H159.58A1.92,1.92,0,0,0,159.58,315.23Z"/><path class="b" d="M126.73,128.28V72h17.54s8.15,63.24,15.31,67.69S161.07,197,161.07,197s-13.71-4-24.21-34.83c-9.43-27.73-10.13-33.35-10.13-33.35Z"/><path class="b" d="M126.73,128.28h.38V72.34h17.16V72l-.38,0s2,15.82,5,32.19c1.47,8.19,3.16,16.52,4.94,23.09a67.94,67.94,0,0,0,2.72,8.32,18.45,18.45,0,0,0,1.39,2.75,5.11,5.11,0,0,0,1.47,1.61,4.65,4.65,0,0,1,1.58,2.36A31.26,31.26,0,0,1,162.4,150c.29,3.16.41,6.84.41,10.71,0,8.19-.53,17.25-1.07,24.27-.27,3.51-.53,6.5-.74,8.62-.1,1.06-.18,1.9-.24,2.47s-.09.88-.09.88l.38,0,.11-.37h0c-.69-.23-13.77-4.75-23.92-34.58-4.71-13.86-7.24-22.19-8.59-27.05-.68-2.43-1.06-4-1.27-4.94-.11-.48-.17-.8-.21-1l0-.22v-.06l-.38,0h.38v-.49h-.77v.54c0,.06.72,5.68,10.15,33.42,10.52,31,24.34,35,24.46,35.08l.44.13,0-.46s2.14-19.89,2.14-36.33a99,99,0,0,0-.78-13.8,24.06,24.06,0,0,0-1.13-4.8,5.34,5.34,0,0,0-1.89-2.75,4.4,4.4,0,0,1-1.23-1.37,27.7,27.7,0,0,1-2.51-5.8c-2.95-8.83-5.8-23.9-7.91-36.75-1.05-6.42-1.92-12.3-2.53-16.56-.3-2.13-.54-3.86-.7-5.06s-.25-1.86-.25-1.86l0-.34H126.34v56.71Z"/><path class="b" d="M212.2,43.05h23.71v90.66s-19,63.24-39.53,62-35.32,3.15-35.32,3.15-5.48-51.17,1.73-51.32c4.2-.09,15.93,19,32.86-35.57C205.69,79.58,212.2,43.05,212.2,43.05Z"/><path class="b" d="M212.2,43.05v.38h23.33v90.28h.38l-.37-.11-.21.69a259.71,259.71,0,0,1-13,33.16c-3.51,7.22-7.55,14.23-11.87,19.4a31.26,31.26,0,0,1-6.65,6.19,12.53,12.53,0,0,1-6.82,2.29l-.57,0c-2.54-.15-5-.22-7.34-.22-16.67,0-28.09,3.38-28.12,3.38l.11.37.38,0s-.13-1.16-.31-3.14c-.56-5.92-1.68-19.17-1.68-30.25a77.38,77.38,0,0,1,.78-12.51,13.45,13.45,0,0,1,1.11-3.75,3.06,3.06,0,0,1,.71-.95,1.18,1.18,0,0,1,.75-.3h0a3.32,3.32,0,0,1,1.36.45c1.72.86,4.23,2.71,7.45,2.72a9.23,9.23,0,0,0,5-1.59c2.71-1.73,5.66-5.06,8.89-11s6.71-14.39,10.46-26.46c10-32.42,16.56-69,16.56-69l-.38-.07v0l-.38-.07s-.1.57-.3,1.63c-1.38,7.43-7.46,38.93-16.24,67.24-5,16.06-9.5,25.71-13.49,31.32a21,21,0,0,1-5.54,5.68,8.45,8.45,0,0,1-4.63,1.47,10.79,10.79,0,0,1-5.1-1.54c-.73-.39-1.39-.79-2-1.09a4,4,0,0,0-1.71-.54h0a1.94,1.94,0,0,0-1.22.47,5.35,5.35,0,0,0-1.43,2.44c-1.09,3.26-1.45,9-1.46,15.36,0,14.84,2,33.46,2,33.47l0,.46.44-.13.51-.14a111.3,111.3,0,0,1,27.39-3.21c2.33,0,4.77.07,7.29.22l.62,0a13.64,13.64,0,0,0,7.71-2.73c4.36-3,8.49-8.25,12.26-14.4,11.29-18.43,19.32-45.15,19.33-45.16l0-.05V42.67H211.88l-.06.32Z"/><polygon class="b" points="160.57 311.57 160.57 240.92 91.65 243.64 86.96 240.92 78.31 221.28 161.06 198.87 183.54 193 196.14 193 205.78 201.4 205.78 311.57 160.57 311.57"/><polygon class="b" points="160.57 311.57 160.96 311.57 160.96 240.52 91.75 243.25 87.26 240.65 78.84 221.54 161.16 199.24 161.16 199.24 183.59 193.38 196 193.38 205.39 201.58 205.39 311.19 160.57 311.19 160.57 311.57 160.96 311.57 160.57 311.57 160.57 311.96 206.16 311.96 206.16 201.23 196.29 192.62 183.49 192.62 160.97 198.5 160.96 198.5 77.78 221.03 86.66 241.19 91.55 244.03 160.19 241.32 160.19 311.96 160.57 311.96 160.57 311.57"/><path class="b" d="M125.25,71.9h21a1.92,1.92,0,0,0,0-3.84h-21A1.92,1.92,0,0,0,125.25,71.9Z"/><path class="b" d="M211.21,43.49h26.43a1.92,1.92,0,0,0,0-3.84H211.21A1.92,1.92,0,0,0,211.21,43.49Z"/><path class="b" d="M123.32,70v58.3a1.92,1.92,0,0,0,3.84,0V70A1.92,1.92,0,0,0,123.32,70Z"/><path class="b" d="M235.72,41.57v92.14a1.92,1.92,0,0,0,3.84,0V41.57A1.92,1.92,0,0,0,235.72,41.57Z"/><path class="b" d="M205.58,201.4V313.3a1.92,1.92,0,0,0,3.84,0V201.4A1.92,1.92,0,0,0,205.58,201.4Z"/><path class="b" d="M157.66,242.41v70.9a1.92,1.92,0,0,0,3.84,0v-70.9A1.92,1.92,0,0,0,157.66,242.41Z"/><path class="b" d="M91.65,246.8l67.93-2.47c2.47-.09,2.48-3.93,0-3.84L91.65,243C89.18,243,89.17,246.89,91.65,246.8Z"/><path class="b" d="M92.16,243,86,240.55a1.92,1.92,0,0,0-2.36,1.34A2,2,0,0,0,85,244.26l6.18,2.47a1.92,1.92,0,0,0,2.36-1.34A2,2,0,0,0,92.16,243Z"/><path class="b" d="M87.13,241.44l-9.26-21.12c-1-2.27-4.3-.31-3.32,1.94l9.26,21.12C84.81,245.64,88.12,243.68,87.13,241.44Z"/><path class="b" d="M76.72,223.14l83.37-22.42c2.39-.64,1.37-4.35-1-3.71L75.7,219.43C73.31,220.08,74.32,223.78,76.72,223.14Z"/><path class="b" d="M208.48,199.74l-9.64-4.45c-2.23-1-4.19,2.28-1.94,3.32l9.63,4.45C208.77,204.09,210.72,200.78,208.48,199.74Z"/><path class="b" d="M144.32,70c2,21,4.94,42.65,11.64,62.65,2.33,7,7,20.95,16.7,19.43,4.84-.76,8.34-6,10.68-9.77,5.38-8.72,8.76-18.79,11.9-28.47,7.59-23.43,12.87-47.63,17.82-71.73.5-2.42-3.21-3.45-3.71-1-4.17,20.3-8.69,40.56-14.4,60.49-3.34,11.66-7,23.47-12.46,34.34-2.11,4.19-5.36,10.64-9.92,12.22a3.93,3.93,0,0,1-3.54-.35,11.75,11.75,0,0,1-3.62-3.64c-6.89-10-9.23-23.62-11.55-35.25-2.28-11.39-4-22.91-5.24-34.46-.17-1.47-.33-3-.46-4.43C147.94,67.54,144.09,67.51,144.32,70Z"/><path class="b" d="M123.39,128.79a231.32,231.32,0,0,0,9.12,31.48c5.16,14.23,12.24,32.33,26.1,40.26,2.16,1.23,4.09-2.09,1.94-3.32-6.29-3.6-10.64-9.76-14.26-15.88a136.42,136.42,0,0,1-10.64-23.67,225.93,225.93,0,0,1-8.55-29.89C126.59,125.34,122.89,126.37,123.39,128.79Z"/><path class="b" d="M235.79,133.2a232.77,232.77,0,0,1-11.21,28.85,126.69,126.69,0,0,1-12,21.05c-3.7,5.13-8.71,10.86-15.27,12-2.44.42-1.4,4.13,1,3.71,6.45-1.11,11.5-6.13,15.46-11,5.3-6.54,9.37-14,13-21.59a230.24,230.24,0,0,0,12.64-32C240.23,131.85,236.52,130.84,235.79,133.2Z"/></svg>