<svg xmlns="http://www.w3.org/2000/svg" viewBox="0 0 57.39 54.8"><defs><style>.a{fill:#b4aaa3;}.b{fill:#fcfcfc;}</style></defs><title>Website-Outline</title><path class="a" d="M0,27.29C0,14.63,8.54,4,21.15,1c10.56-2.53,20-.15,28,7.13A25,25,0,0,1,57.3,25.23a25.87,25.87,0,0,1-8,21.38,28.47,28.47,0,0,1-17.17,8A29,29,0,0,1,8.25,46.85,24.78,24.78,0,0,1,0,27.29Zm19.84,10c-1.8,2.42-3.64,4.81-5.36,7.28a1.69,1.69,0,0,0,.17,1.59,2,2,0,0,0,1.81-.06c1.73-2.12,3.3-4.37,5.1-6.8-1.83.15-1.85-.86-1.7-2l0.43-.22L22.51,38l7.9-10.67L35.82,37.7c1.4,2.68,2.76,5.4,4.26,8,0.27,0.47,1.17.57,1.78,0.84a11.9,11.9,0,0,0,.57-2,2.28,2.28,0,0,0-.48-1C39,37.95,36,32.27,33,26.66a2.57,2.57,0,0,1,.23-3.27c3.23-4.2,6.34-8.5,9.48-12.77,0.92-1.26.56-2.33-.89-2.45a25,25,0,0,0-4.54,0,1.79,1.79,0,0,0-1.1,1.28,1.77,1.77,0,0,0,.92,1.27,5.42,5.42,0,0,0,1.8.27c-0.95,1.93-2,3.2-4.54,3C30.6,13.78,26.79,14,23,14a6.32,6.32,0,0,0-2.09.06,4.75,4.75,0,0,0-1.34,1.31A4.57,4.57,0,0,0,21,16.53a6.86,6.86,0,0,0,2.42,0,1.8,1.8,0,0,1,2,1.22c0.9,1.85,1.82,3.69,2.89,5.45A2.2,2.2,0,0,1,28,26.09c-2.69,3.59-5.28,7.25-7.91,10.88Z"/><path class="b" d="M20.14,37c2.63-3.63,5.22-7.29,7.91-10.88a2.2,2.2,0,0,0,.25-2.86c-1.07-1.75-2-3.6-2.89-5.45a1.8,1.8,0,0,0-2-1.22,6.86,6.86,0,0,1-2.42,0,4.57,4.57,0,0,1-1.41-1.18A4.75,4.75,0,0,1,20.91,14,6.32,6.32,0,0,1,23,14c3.79,0,7.6-.2,11.37.07C36.88,14.22,38,13,38.91,11a5.42,5.42,0,0,1-1.8-.27,1.77,1.77,0,0,1-.92-1.27,1.79,1.79,0,0,1,1.1-1.28,25,25,0,0,1,4.54,0c1.45,0.11,1.81,1.19.89,2.45-3.14,4.27-6.25,8.57-9.48,12.77A2.57,2.57,0,0,0,33,26.66c3,5.61,6,11.28,8.94,16.93a2.28,2.28,0,0,1,.48,1,11.9,11.9,0,0,1-.57,2c-0.61-.27-1.51-0.38-1.78-0.84-1.51-2.63-2.86-5.34-4.26-8L30.41,27.35,22.51,38l-2.21-.9ZM34.92,16.71H27.86l2.92,5.62Zm-4.41,6.56A4.74,4.74,0,0,0,29.63,25a2.61,2.61,0,0,0,.94,1,3.21,3.21,0,0,0,1-1.16C31.58,24.46,31,24,30.51,23.27Z"/><path class="b" d="M19.87,37.35c-0.15,1.12-.13,2.12,1.7,2-1.79,2.43-3.37,4.68-5.1,6.8a2,2,0,0,1-1.81.06,1.69,1.69,0,0,1-.17-1.59c1.72-2.47,3.56-4.86,5.36-7.28Z"/><path class="b" d="M20.3,37.13l-0.43.22,0,0L20.14,37Z"/><path class="a" d="M34.92,16.71l-4.15,5.62-2.92-5.62h7.06Z"/><path class="a" d="M30.51,23.27c0.53,0.76,1.07,1.19,1,1.52a3.21,3.21,0,0,1-1,1.16,2.61,2.61,0,0,1-.94-1A4.74,4.74,0,0,1,30.51,23.27Z"/></svg>