<svg xmlns="http://www.w3.org/2000/svg" viewBox="0 0 57.6 54.9"><defs><style>.a{fill:#545555;}.b{fill:#fcfcfc;}.c{fill:#403c33;}.d{fill:#353337;}.e{fill:#252227;}</style></defs><title>Website-Outline</title><path class="a" d="M29.21,54.9c-13.08-.06-24.51-8.14-28-19.5A27.05,27.05,0,0,1,18.32,1.93c11.24-3.81,21.53-2,30.52,5.81A25.26,25.26,0,0,1,57.49,25.1C59,41.13,46.31,53.31,32,54.62,30.94,54.72,29.87,54.83,29.21,54.9ZM11.63,37.62L12,38.32l0,0,1,2h0a2.6,2.6,0,0,0,1,.88c1.5,0.09,3,0,4.51,0a1.18,1.18,0,0,0,.34-0.49l1,0,5.48,0.29v1a2.57,2.57,0,0,0-.56,1q-0.07,4.05,0,8.1a2.54,2.54,0,0,0,.57,1l0.37,0.34c1.62,0.11,3.24.28,4.87,0.3a29,29,0,0,0,3.25-.31L34,52a5.86,5.86,0,0,0,.32-1.34q0-8.08,0-16.16A6.16,6.16,0,0,0,34,33.13l-0.77-.56A31.47,31.47,0,0,0,36,28.77c1.13-2.17,2-4.46,3-6.71a2.1,2.1,0,0,0,.54-0.83q0.05-7.06,0-14.12a2.48,2.48,0,0,0-.59-1H34c-0.2.93-.34,1.83-0.6,2.7C32,13.42,30.64,18,29.17,22.55a2.36,2.36,0,0,1-1.48,1.36A3.18,3.18,0,0,1,26,22.28a33.45,33.45,0,0,1-1.4-5.09c-0.43-2.1-.71-4.22-1.09-6.55l-4.12.4a5.88,5.88,0,0,0-.26,1.2c0,2.62,0,5.23,0,7.85a7,7,0,0,0,.36,1.51c1.5,3.78,2.1,8,5.28,11.06L11.91,36,11.6,36l-0.34.66,0.4,0.95Z"/><path class="b" d="M25.2,41.91v-1a2,2,0,0,0-.82-0.52c-1.55,0-3.1.14-4.65,0.23l-1,0-5.84-.37h0l-1-2,0,0-0.32-.7,0,0-0.4-.95L11.6,36h0.16l0.15,0,12.83-3.34C21.57,29.56,21,25.38,19.47,21.6Q19.42,16.32,19.36,11l4.12-.4c0.38,2.33.66,4.45,1.09,6.55A33.45,33.45,0,0,0,26,22.28a3.18,3.18,0,0,0,1.73,1.63,2.36,2.36,0,0,0,1.48-1.36C30.64,18,32,13.42,33.38,8.85c0.26-.87.4-1.77,0.6-2.7h4.95l0,15.92c-1,2.24-1.86,4.54-3,6.71a31.47,31.47,0,0,1-2.73,3.8L34,33.13V52l-0.32.32-8.12,0L25.21,52V41.91Z"/><path class="c" d="M39,22.06l0-15.92a2.48,2.48,0,0,1,.59,1q0.06,7.06,0,14.12A2.1,2.1,0,0,1,39,22.06Z"/><path class="c" d="M25.2,41.91V52a2.54,2.54,0,0,1-.57-1q-0.07-4.05,0-8.1A2.57,2.57,0,0,1,25.2,41.91Z"/><path class="d" d="M34,52V33.13a6.16,6.16,0,0,1,.31,1.35q0,8.08,0,16.16A5.86,5.86,0,0,1,34,52Z"/><path class="c" d="M12.9,40.27l5.84,0.37a1.18,1.18,0,0,1-.34.49c-1.5,0-3,.1-4.51,0A2.6,2.6,0,0,1,12.9,40.27Z"/><path class="e" d="M19.36,11q0.05,5.28.11,10.56a6.84,6.84,0,0,1-.36-1.51c0-2.62,0-5.23,0-7.85A5.88,5.88,0,0,1,19.36,11Z"/><path class="c" d="M19.74,40.63c1.55-.08,3.1-0.2,4.65-0.23a2,2,0,0,1,.82.52Z"/><path class="d" d="M25.58,52.31l8.12,0a29,29,0,0,1-3.25.31C28.82,52.59,27.2,52.41,25.58,52.31Z"/><path class="c" d="M11.94,38.29l1,2Z"/><path class="c" d="M11.27,36.7l0.4,0.95Z"/><path class="c" d="M11.63,37.62L12,38.32Z"/><path class="c" d="M11.91,36l-0.15,0H11.6Z"/></svg>