<svg xmlns="http://www.w3.org/2000/svg" viewBox="0 0 57.69 54.85"><defs><style>.a{fill:#050808;}.b{fill:#f3f3f3;}</style></defs><title>Website-Outline</title><path class="a" d="M28.79,54.85a29.86,29.86,0,0,1-18.73-6.63A25.81,25.81,0,0,1,.34,31.62,25.82,25.82,0,0,1,6.76,9.75,28.45,28.45,0,0,1,28.7,0C42.31,0,54.07,8.65,56.92,21.23c2,9,.05,17.11-6.16,24C45.12,51.49,37.88,54.41,28.79,54.85Zm8.85-29H8a1.52,1.52,0,0,0-.8.08A2.28,2.28,0,0,0,6.17,27a2.26,2.26,0,0,0,.95,1.21c0.23,0.2.88,0.17,0.9,0.31,0.18,1.17,1.06.9,1.76,0.9,3.95,0,7.9,0,11.85,0a7.53,7.53,0,0,1,2.66.5c4.38,1.76,8.72,3.6,13.08,5.41,1.59,0.66,1.8.5,1.8-1.29,0-2.9,0-5.79,0-8.77,3.61,0,7.06,0,10.52,0a4,4,0,0,0,1.48-.79,4.1,4.1,0,0,0-1.44-.68c-3.24-.06-6.49,0-9.74-0.06C38.41,23.66,37.22,23.75,37.64,25.82Z"/><path class="b" d="M37.64,25.82c-0.42-2.07.76-2.16,2.34-2.11,3.24,0.1,6.49,0,9.74.06a4.1,4.1,0,0,1,1.44.68,4,4,0,0,1-1.48.79c-3.45.07-6.91,0-10.52,0,0,3,0,5.88,0,8.77,0,1.79-.21,1.95-1.8,1.29-4.36-1.81-8.7-3.65-13.08-5.41a7.53,7.53,0,0,0-2.66-.5c-3.95-.05-7.9,0-11.85,0-0.7,0-1.58.27-1.76-.9,0-.14-0.67-0.11-0.9-0.31A2.26,2.26,0,0,1,6.17,27,2.28,2.28,0,0,1,7.24,25.9,1.52,1.52,0,0,1,8,25.82H37.64Zm-13.1,2.44-0.07.2,13.1,5.38V28.27h-13Z"/><path class="a" d="M24.54,28.27h13v5.58l-13.1-5.38Z"/></svg>