<svg xmlns="http://www.w3.org/2000/svg" viewBox="0 0 57.6 54.85"><defs><style>.a{fill:#a78956;}.b{fill:#967235;}.c{fill:#fcfbf9;}.d{fill:#f8f5f2;}.e{fill:#865b15;}.f{fill:#a68855;}</style></defs><title>Website-Outline</title><path class="a" d="M39.85,52.6a25.94,25.94,0,0,1-13.39,2.14A29,29,0,0,1,8.77,47.16,25.76,25.76,0,0,1,.18,30.58,26.07,26.07,0,0,1,7.94,8.46,28.31,28.31,0,0,1,24.37.35,29,29,0,0,1,46.31,5.66,26.25,26.25,0,0,1,57.52,25.75c0.95,12.09-6.9,22.62-16.7,26.5l-0.07-.51a5.74,5.74,0,0,0,.07-0.64q0-20.75,0-41.5A7.87,7.87,0,0,0,40.51,8V7.39c0.73-.67,1-1.34,0-2a4.07,4.07,0,0,0-1.33-.52q-10.51,0-21,0a4.11,4.11,0,0,0-1.33.52c-0.89.48-.83,1.13-0.34,1.86l0,0.79c-1,1.38.62,2.26,0.67,3.44q0,19.33,0,38.67a4.68,4.68,0,0,0,.55,1.48,0.14,0.14,0,0,1,.13.16,6.56,6.56,0,0,0,1.71.49c6.21,0,12.43,0,18.64,0A10,10,0,0,1,39.85,52.6Z"/><path class="b" d="M39.85,52.6a10,10,0,0,0-1.69-.29c-6.21,0-12.43,0-18.64,0a6.57,6.57,0,0,1-1.71-.49c5,0,10,.07,15,0.07,2.64,0,5.27-.08,7.91-0.12l0.07,0.51Z"/><path class="c" d="M40.75,51.74c-2.64,0-5.27.12-7.91,0.12-5,0-10,0-15-.07a0.14,0.14,0,0,0-.13-0.16c0-.65,0-1.3,0-1.95q0-18.19-.07-36.38a7.79,7.79,0,0,0-.45-1.81c0-1.18-1.67-2.06-.67-3.44,0.64,0,1.28-.13,1.93-0.13q9.3,0,18.59,0c1.18,0,2.36.09,3.54,0.14a7.87,7.87,0,0,1,.31,1.55q0,20.75,0,41.5A5.74,5.74,0,0,1,40.75,51.74ZM19,45.5L18.5,50.78c7.06,0,13.76,0,20.45,0a2.43,2.43,0,0,0,.87-0.41V45.78l-0.28-.28H19ZM39.77,33.73V20.46H18.68V33.73H39.77Z"/><path class="d" d="M40.48,5.39c1.06,0.66.75,1.33,0,2-6.23,0-12.46,0-18.69,0-1.78,0-3.56-.08-5.35-0.13-0.49-.73-0.55-1.38.34-1.86H40.48Z"/><path class="b" d="M17.12,11.48a7.79,7.79,0,0,1,.45,1.81q0.06,18.19.07,36.38c0,0.65,0,1.3,0,1.95a4.68,4.68,0,0,1-.55-1.48Q17.09,30.81,17.12,11.48Z"/><path class="b" d="M40.48,5.39H16.8a4.11,4.11,0,0,1,1.33-.52q10.51,0,21,0A4.07,4.07,0,0,1,40.48,5.39Z"/><path class="e" d="M16.47,7.25c1.78,0,3.56.12,5.35,0.13,6.23,0,12.46,0,18.69,0V8C39.33,8,38.15,7.91,37,7.91q-9.3,0-18.59,0c-0.64,0-1.28.08-1.93,0.13Z"/><path class="f" d="M39.82,45.78v4.57H19V45.5H39.54Z"/><path class="b" d="M39.77,33.73H18.68V20.46H39.77V33.73Zm-10.47-.29c3,0,5.95,0,8.92,0a1.07,1.07,0,0,0,1.33-1.28c0-3.41,0-6.81,0-10.22a1,1,0,0,0-1.25-1.2q-9,0-18,0A1,1,0,0,0,19,22c0,3.41,0,6.82,0,10.22a1.07,1.07,0,0,0,1.33,1.28C23.34,33.41,26.32,33.44,29.29,33.44Z"/><path class="b" d="M19,45.5v4.85H39.83a2.43,2.43,0,0,1-.87.41c-6.7,0-13.39,0-20.45,0Z"/><path class="b" d="M39.82,45.78l-0.28-.28Z"/><path class="f" d="M29.29,33.44c-3,0-5.95,0-8.92,0A1.07,1.07,0,0,1,19,32.17c0-3.41,0-6.81,0-10.22a1,1,0,0,1,1.25-1.2q9,0,18,0A1,1,0,0,1,39.54,22c0,3.41,0,6.82,0,10.22a1.07,1.07,0,0,1-1.33,1.28C35.24,33.41,32.27,33.44,29.29,33.44Z"/></svg>