<svg xmlns="http://www.w3.org/2000/svg" viewBox="0 0 360.27 360.27"><defs><style>.a{fill:#b5aaa3;}.b{fill:#fff;}</style></defs><title>Artboard 26</title><circle class="a" cx="180.14" cy="180.14" r="178.51"/><path class="a" d="M358.65,180.14H357A176.89,176.89,0,1,1,305.22,55.06,176.33,176.33,0,0,1,357,180.14h3.25A180.14,180.14,0,1,0,180.14,360.27,180.14,180.14,0,0,0,360.27,180.14Z"/><path class="b" d="M104.33,296.58,248,100.85l21.26-29c6.21-8.45-7.89-16.54-14-8.19L111.57,259.43l-21.26,29C84.11,296.84,98.21,304.92,104.33,296.58Z"/><path class="b" d="M156.49,114l95.59,182.62c4.86,9.28,18.87,1.07,14-8.19l-95.6-182.62C165.65,96.48,151.64,104.69,156.49,114Z"/><path class="b" d="M130.92,112.56h98.43c10.47,0,10.47-16.23,0-16.23H130.92C120.46,96.33,120.46,112.56,130.92,112.56Z"/><path class="b" d="M262.26,59.68h-28c-10.47,0-10.47,16.23,0,16.23h28C272.73,75.91,272.73,59.68,262.26,59.68Z"/><circle class="a" cx="191.7" cy="164.25" r="6"/><path class="a" d="M197.71,164.25h-.81a5.19,5.19,0,1,1-5.19-5.19,5.2,5.2,0,0,1,5.19,5.19h1.62a6.82,6.82,0,1,0-6.82,6.82,6.82,6.82,0,0,0,6.82-6.82Z"/><circle class="a" cx="130.92" cy="247.95" r="6"/><path class="a" d="M136.93,247.95h-.81a5.19,5.19,0,1,1-5.19-5.19,5.2,5.2,0,0,1,5.19,5.19h1.62a6.82,6.82,0,1,0-6.82,6.82,6.81,6.81,0,0,0,6.82-6.82Z"/></svg>