<svg xmlns="http://www.w3.org/2000/svg" viewBox="0 0 360.31 360.3"><defs><style>.a{fill:#090b0c;}.b{fill:#f3f3f3;}</style></defs><title>Asset 1</title><path class="a" d="M180,360.3c-42.56,0-83.82-15.41-116.93-43.55C30.23,290,8.49,250.93,2.37,207.72c-8.54-51.83,6.27-104.9,40.08-143.65,34.44-41.56,84.57-65,137-64,85,0,158.39,56.82,176.18,139.45,12.49,59.11.31,112.38-38.46,157.64C281.93,338.23,236.73,357.41,180,360.3Zm55.25-190.48h-185a9.05,9.05,0,0,0-5,.53,14.67,14.67,0,0,0-6.43,7,14.75,14.75,0,0,0,5.93,7.95c1.44,1.31,5.49,1.12,5.62,2,1.12,7.68,6.62,5.91,11,5.91h74a45,45,0,0,1,16.61,3.28c27.34,11.56,54.44,23.65,81.66,35.53,9.93,4.34,11.24,3.28,11.24-8.47V166h65.68a24.6,24.6,0,0,0,9.24-5.19,25.06,25.06,0,0,0-9-4.47c-20.23-.39-40.52,0-60.81-.39-9.86-.53-17.29.07-14.67,13.66Z"/><path class="b" d="M235.24,169.62c-2.62-13.6,4.74-14.19,14.61-13.86,20.23.66,40.52,0,60.81.39a25.06,25.06,0,0,1,9,4.47,24.6,24.6,0,0,1-9.24,5.19c-21.54.46-43.14,0-65.68,0v57.6c0,11.76-1.31,12.81-11.24,8.47-27.22-11.89-54.31-24-81.66-35.53a45,45,0,0,0-16.61-3.28c-24.66-.33-49.32,0-74,0-4.37,0-9.86,1.77-11-5.91,0-.92-4.18-.72-5.62-2a14.74,14.74,0,0,1-5.87-7.75,14.66,14.66,0,0,1,6.68-7.23,9.05,9.05,0,0,1,4.74-.53Zm-81.78,16L153,187,234.8,222.3V185.72H153.64Z"/><path class="a" d="M153.45,185.72h81.16v36.65L152.83,187Z"/></svg>